<?xml version="1.0" encoding="utf-8" standalone="no"?>
<!DOCTYPE svg PUBLIC "-//W3C//DTD SVG 1.1//EN"
  "http://www.w3.org/Graphics/SVG/1.1/DTD/svg11.dtd">
<svg xmlns:xlink="http://www.w3.org/1999/xlink" width="518.4pt" height="302.4pt" viewBox="0 0 518.4 302.4" xmlns="http://www.w3.org/2000/svg" version="1.1">
 <metadata>
  <rdf:RDF xmlns:dc="http://purl.org/dc/elements/1.1/" xmlns:cc="http://creativecommons.org/ns#" xmlns:rdf="http://www.w3.org/1999/02/22-rdf-syntax-ns#">
   <cc:Work>
    <dc:type rdf:resource="http://purl.org/dc/dcmitype/StillImage"/>
    <dc:date>2026-06-26T12:49:27.021147</dc:date>
    <dc:format>image/svg+xml</dc:format>
    <dc:creator>
     <cc:Agent>
      <dc:title>Matplotlib v3.9.4, https://matplotlib.org/</dc:title>
     </cc:Agent>
    </dc:creator>
   </cc:Work>
  </rdf:RDF>
 </metadata>
 <defs>
  <style type="text/css">*{stroke-linejoin: round; stroke-linecap: butt}</style>
 </defs>
 <g id="figure_1">
  <g id="patch_1">
   <path d="M 0 302.4 
L 518.4 302.4 
L 518.4 0 
L 0 0 
z
" style="fill: #ffffff"/>
  </g>
  <g id="axes_1">
   <g id="patch_2">
    <path d="M 44.5824 139.563648 
L 163.8144 139.563648 
Q 169.537536 139.563648 169.537536 136.44288 
L 169.537536 71.42688 
Q 169.537536 68.306112 163.8144 68.306112 
L 44.5824 68.306112 
Q 38.859264 68.306112 38.859264 71.42688 
L 38.859264 136.44288 
Q 38.859264 139.563648 44.5824 139.563648 
z
" clip-path="url(#p9f667837c1)" style="fill: #ffffff; stroke: #d84a8a; stroke-width: 0.9; stroke-linejoin: miter"/>
   </g>
   <g id="patch_3">
    <path d="M 199.584 139.563648 
L 318.816 139.563648 
Q 324.539136 139.563648 324.539136 136.44288 
L 324.539136 71.42688 
Q 324.539136 68.306112 318.816 68.306112 
L 199.584 68.306112 
Q 193.860864 68.306112 193.860864 71.42688 
L 193.860864 136.44288 
Q 193.860864 139.563648 199.584 139.563648 
z
" clip-path="url(#p9f667837c1)" style="fill: #ffffff; stroke: #2a9d8f; stroke-width: 0.9; stroke-linejoin: miter"/>
   </g>
   <g id="patch_4">
    <path d="M 354.5856 139.563648 
L 473.8176 139.563648 
Q 479.540736 139.563648 479.540736 136.44288 
L 479.540736 71.42688 
Q 479.540736 68.306112 473.8176 68.306112 
L 354.5856 68.306112 
Q 348.862464 68.306112 348.862464 71.42688 
L 348.862464 136.44288 
Q 348.862464 139.563648 354.5856 139.563648 
z
" clip-path="url(#p9f667837c1)" style="fill: #ffffff; stroke: #3c78d8; stroke-width: 0.9; stroke-linejoin: miter"/>
   </g>
   <g id="patch_5">
    <path d="M 106.58304 251.391168 
L 411.81696 251.391168 
Q 417.540096 251.391168 417.540096 248.2704 
L 417.540096 188.45568 
Q 417.540096 185.334912 411.81696 185.334912 
L 106.58304 185.334912 
Q 100.859904 185.334912 100.859904 188.45568 
L 100.859904 248.2704 
Q 100.859904 251.391168 106.58304 251.391168 
z
" clip-path="url(#p9f667837c1)" style="fill: #ffffff; stroke: #666666; stroke-width: 0.9; stroke-linejoin: miter"/>
   </g>
   <g id="text_1">
    <text style="fill: #d84a8a; font: 700 7.8px 'Arial', 'Helvetica', 'DejaVu Sans', sans-serif; text-anchor: middle" x="104.1984" y="95.503039" transform="rotate(-0 104.1984 95.503039)">RNA layer</text>
   </g>
   <g id="text_2">
    <text style="fill: #333333; font: 6.5px 'Arial', 'Helvetica', 'DejaVu Sans', sans-serif" transform="translate(66.259728 109.478467)">host-response / S100 high</text>
    <text style="fill: #333333; font: 6.5px 'Arial', 'Helvetica', 'DejaVu Sans', sans-serif" transform="translate(62.304884 116.057401)">MHC-II / CD74 / HLA-DR low</text>
    <text style="fill: #333333; font: 6.5px 'Arial', 'Helvetica', 'DejaVu Sans', sans-serif" transform="translate(46.569298 122.560163)">continuous immune-decoupling gradient</text>
   </g>
   <g id="text_3">
    <text style="fill: #2a9d8f; font: 700 7.8px 'Arial', 'Helvetica', 'DejaVu Sans', sans-serif; text-anchor: middle" x="259.2" y="95.554226" transform="rotate(-0 259.2 95.554226)">Paired association</text>
   </g>
   <g id="text_4">
    <text style="fill: #333333; font: 6.5px 'Arial', 'Helvetica', 'DejaVu Sans', sans-serif" transform="translate(210.734375 109.395774)">COMBAT sepsis-only paired rows</text>
    <text style="fill: #333333; font: 6.5px 'Arial', 'Helvetica', 'DejaVu Sans', sans-serif" transform="translate(210.975586 115.974709)">representative co-event summary</text>
    <text style="fill: #333333; font: 6.5px 'Arial', 'Helvetica', 'DejaVu Sans', sans-serif" transform="translate(220.071016 122.646918)">matched RNA-CyTOF links</text>
   </g>
   <g id="text_5">
    <text style="fill: #3c78d8; font: 700 7.8px 'Arial', 'Helvetica', 'DejaVu Sans', sans-serif; text-anchor: middle" x="414.2016" y="95.55057" transform="rotate(-0 414.2016 95.55057)">Cytometry context</text>
   </g>
   <g id="text_6">
    <text style="fill: #333333; font: 6.5px 'Arial', 'Helvetica', 'DejaVu Sans', sans-serif" transform="translate(372.841288 109.516553)">raw-FCS all-pair background</text>
    <text style="fill: #333333; font: 6.5px 'Arial', 'Helvetica', 'DejaVu Sans', sans-serif" transform="translate(379.169647 116.095487)">marker-state summaries</text>
    <text style="fill: #333333; font: 6.5px 'Arial', 'Helvetica', 'DejaVu Sans', sans-serif" transform="translate(383.133631 122.598249)">matched control pairs</text>
   </g>
   <g id="text_7">
    <text style="fill: #666666; font: 700 7.8px 'Arial', 'Helvetica', 'DejaVu Sans', sans-serif; text-anchor: middle" x="259.2" y="210.814591" transform="rotate(-0 259.2 210.814591)">Interpretation scope</text>
   </g>
   <g id="text_8">
    <text style="fill: #333333; font: 6.5px 'Arial', 'Helvetica', 'DejaVu Sans', sans-serif" transform="translate(215.488516 219.65662)">public-data immune-state map</text>
    <text style="fill: #333333; font: 6.5px 'Arial', 'Helvetica', 'DejaVu Sans', sans-serif" transform="translate(197.614531 226.159383)">representative cytometry-derived summary</text>
    <text style="fill: #333333; font: 6.5px 'Arial', 'Helvetica', 'DejaVu Sans', sans-serif" transform="translate(201.763359 232.827042)">pair-level specificity remains unresolved</text>
    <text style="fill: #333333; font: 6.5px 'Arial', 'Helvetica', 'DejaVu Sans', sans-serif" transform="translate(170.320117 239.494701)">prospective paired sampling needed before clinical translation</text>
   </g>
   <g id="patch_6">
    <path d="M 165.81858 105.2352 
Q 181.701765 105.2352 196.578718 105.2352 
" style="fill: none; stroke: #8a8a8a; stroke-width: 0.9; stroke-linecap: round"/>
    <path d="M 193.778718 103.8352 
L 196.578718 105.2352 
L 193.778718 106.6352 
z
" style="fill: #8a8a8a; stroke: #8a8a8a; stroke-width: 0.9; stroke-linecap: round"/>
   </g>
   <g id="patch_7">
    <path d="M 352.58142 105.2352 
Q 336.698235 105.2352 321.821282 105.2352 
" style="fill: none; stroke: #8a8a8a; stroke-width: 0.9; stroke-linecap: round"/>
    <path d="M 324.621282 106.6352 
L 321.821282 105.2352 
L 324.621282 103.8352 
z
" style="fill: #8a8a8a; stroke: #8a8a8a; stroke-width: 0.9; stroke-linecap: round"/>
   </g>
   <g id="patch_8">
    <path d="M 259.2 138.442408 
Q 259.2 161.148903 259.2 182.849168 
" style="fill: none; stroke: #8a8a8a; stroke-width: 0.9; stroke-linecap: round"/>
    <path d="M 260.6 180.049168 
L 259.2 182.849168 
L 257.8 180.049168 
z
" style="fill: #8a8a8a; stroke: #8a8a8a; stroke-width: 0.9; stroke-linecap: round"/>
   </g>
  </g>
  <g id="text_9">
   <text style="fill: #333333; font: 700 8.4px 'Arial', 'Helvetica', 'DejaVu Sans', sans-serif" transform="translate(68.166281 10.650937)">Supplementary Figure S1. Working interpretation of inflammatory/MHC-II decoupling and paired</text>
   <text style="fill: #333333; font: 700 8.4px 'Arial', 'Helvetica', 'DejaVu Sans', sans-serif" transform="translate(213.686437 18.732066)">cytometry association.</text>
  </g>
 </g>
 <defs>
  <clipPath id="p9f667837c1">
   <rect x="20.736" y="27.216" width="476.928" height="260.064"/>
  </clipPath>
 </defs>
</svg>
