<?xml version="1.0" encoding="utf-8"?>
<!-- Generator: Adobe Illustrator 28.1.0, SVG Export Plug-In . SVG Version: 6.00 Build 0)  -->
<svg version="1.1" id="图层_1" xmlns="http://www.w3.org/2000/svg" xmlns:xlink="http://www.w3.org/1999/xlink" x="0px" y="0px"
	 viewBox="0 0 1600 1100" style="enable-background:new 0 0 1600 1100;" xml:space="preserve">
<style type="text/css">
	.st0{fill:none;stroke:#DCE7F4;stroke-width:1.3;}
	.st1{fill:none;stroke:#E8EEF7;stroke-width:1.1;}
	.st2{fill:none;stroke:#E3EBF6;stroke-width:1.2;}
	.st3{fill:none;stroke:#EFF4FA;stroke-width:1.1;}
	.st4{fill:#D5E0F0;}
	.st5{fill:#0B1B4C;}
	.st6{font-family:'Arial-BoldMT';}
	.st7{font-size:34px;}
	.st8{fill:url(#SVGID_1_);}
	.st9{fill:#F8C9D9;}
	.st10{fill:#FFF2F6;stroke:#EF4F8D;stroke-width:2.1;}
	.st11{fill:#FFF9FB;stroke:#EF4F8D;stroke-width:1.5;}
	.st12{fill:#FFF9FB;stroke:#EF4F8D;stroke-width:2;}
	.st13{fill:none;stroke:#EF4F8D;stroke-width:3;}
	.st14{fill:#F376A8;}
	.st15{fill:none;stroke:#EF4F8D;stroke-width:1.6;}
	.st16{fill:none;stroke:#EF4F8D;stroke-width:3.2;stroke-linecap:round;}
	.st17{fill:#506188;}
	.st18{font-size:13px;}
	.st19{letter-spacing:1;}
	.st20{font-size:24px;}
	.st21{fill:#17244D;}
	.st22{font-family:'ArialMT';}
	.st23{font-size:18px;}
	.st24{fill:none;stroke:#F4A5C5;stroke-width:1.6;stroke-dasharray:4,5;}
	.st25{fill:#E9F8EF;}
	.st26{fill:#4DA36B;stroke:#3B8C57;stroke-width:1.2;}
	.st27{font-size:22px;}
	.st28{fill:#EF4F8D;}
	.st29{fill:#FFFFFF;stroke:#C8D5E8;stroke-width:1.4;}
	.st30{fill:#2567D8;}
	.st31{fill:url(#SVGID_00000108277084258583373700000015383563704305591458_);}
	.st32{fill:none;stroke:#EF4F8D;stroke-width:4;stroke-linecap:round;}
	.st33{fill:none;stroke:#2567D8;stroke-width:4;stroke-linecap:round;}
	.st34{fill:none;stroke:#9EB0D5;stroke-width:2;stroke-linecap:round;}
	.st35{font-size:16px;}
	.st36{fill:#CFE2FA;}
	.st37{fill:#F1F7FF;stroke:#2567D8;stroke-width:2.1;}
	.st38{fill:#F7FBFF;stroke:#2567D8;stroke-width:1.6;}
	.st39{fill:#2996D3;stroke:#174FB2;stroke-width:1.5;}
	.st40{fill:#FFFFFF;fill-opacity:0.35;}
	.st41{fill:#718ADD;stroke:#174FB2;stroke-width:1.5;}
	.st42{fill:#866BD3;stroke:#174FB2;stroke-width:1.5;}
	.st43{fill:#69A5DD;stroke:#174FB2;stroke-width:1.5;}
	.st44{fill:#6FA1E5;stroke:#174FB2;stroke-width:1.5;}
	.st45{fill:#8CB5E6;stroke:#174FB2;stroke-width:1.5;}
	.st46{fill:#8A65CC;stroke:#174FB2;stroke-width:1.5;}
	.st47{font-size:28px;}
	.st48{fill:none;stroke:#9DC6F7;stroke-width:1.6;stroke-dasharray:4,5;}
	.st49{fill:#FFFFFF;stroke:#2567D8;stroke-width:5;}
	.st50{fill:none;stroke:#EF4F8D;stroke-width:7;}
	.st51{fill:none;stroke:#7763D6;stroke-width:7;}
	.st52{fill:#F7FBFF;stroke:#A7B9E8;stroke-width:1.5;}
	.st53{fill:none;stroke:#0B1B4C;stroke-width:2.2;}
	.st54{fill:none;stroke:#0B1B4C;stroke-width:2.2;stroke-miterlimit:3.9998;}
	.st55{fill:#59C7B1;}
	.st56{fill:#D8F2EC;}
	.st57{fill:#EBFFFB;stroke:#008F86;stroke-width:2.1;}
	.st58{fill:none;stroke:#FFFFFF;stroke-width:2.2395;stroke-linecap:round;stroke-miterlimit:1.493;}
	.st59{fill:#FFFFFF;}
	.st60{fill:#446063;}
	.st61{fill:url(#SVGID_00000035526321981652576480000013967584410916463522_);}
	.st62{fill:none;stroke:#59C7B1;stroke-width:6;stroke-linecap:round;stroke-linejoin:round;}
	.st63{fill:#F7F5FF;stroke:#7763D6;stroke-width:1.8;stroke-dasharray:3,5;}
	.st64{fill:#EFEAFC;}
	.st65{fill:#FFFFFF;stroke:#7763D6;stroke-width:3;}
	.st66{stroke:#7763D6;stroke-width:4;stroke-linecap:round;}
	.st67{stroke:#7763D6;stroke-width:2.4;stroke-linecap:round;}
	.st68{fill:#5C5C8C;}
	.st69{fill:#FFF6F8;stroke:#D93E52;stroke-width:1.8;stroke-dasharray:3,5;}
	.st70{fill:#D93E52;}
	.st71{fill:none;stroke:#FFFFFF;stroke-width:3;stroke-linejoin:round;}
	.st72{fill:none;stroke:#FFFFFF;stroke-width:4;stroke-linecap:round;stroke-linejoin:round;}
	.st73{font-size:23px;}
	.st74{fill:none;stroke:#F2BDC6;stroke-width:2;}
	.st75{font-size:20px;}
	.st76{font-size:15.5px;}
</style>
<path class="st0" d="M1015,84c100,38,270,8,433,61"/>
<path class="st1" d="M1035,95c109,32,281,0,440,62"/>
<path class="st2" d="M1276,782c84-37,174,43,238-12"/>
<path class="st3" d="M1268,802c98-37,184,40,259-16"/>
<circle class="st4" cx="1278" cy="78" r="2.4"/>
<circle class="st4" cx="1142" cy="124" r="2.4"/>
<circle class="st4" cx="1456" cy="137" r="2.4"/>
<circle class="st4" cx="87" cy="156" r="2.4"/>
<circle class="st4" cx="380" cy="149" r="2.2"/>
<circle class="st4" cx="1398" cy="697" r="2.2"/>
<text transform="matrix(1 0 0 1 80 108)" class="st5 st6 st7">Figure 1 Layered immune-state decoupling framework</text>
<linearGradient id="SVGID_1_" gradientUnits="userSpaceOnUse" x1="-475.3438" y1="1094.5" x2="-474.3438" y2="1094.5" gradientTransform="matrix(288 0 0 -6 136979 6706)">
	<stop  offset="0" style="stop-color:#EF4F8D"/>
	<stop  offset="0.55" style="stop-color:#7763D6"/>
	<stop  offset="1" style="stop-color:#20A9C5"/>
</linearGradient>
<path class="st8" d="M83,136h282c1.7,0,3,1.3,3,3l0,0c0,1.7-1.3,3-3,3H83c-1.7,0-3-1.3-3-3l0,0C80,137.3,81.3,136,83,136z"/>
<path class="st9" d="M78.8,533h566.4c9.3,0,16.8,6.7,16.8,15l0,0c0,8.3-7.5,15-16.8,15H78.8c-9.3,0-16.8-6.7-16.8-15l0,0
	C62,539.7,69.5,533,78.8,533z"/>
<path class="st10" d="M88,165h544c15.5,0,28,12.5,28,28v314c0,15.5-12.5,28-28,28H88c-15.5,0-28-12.5-28-28V193
	C60,177.5,72.5,165,88,165z"/>
<circle class="st11" cx="185" cy="315" r="72"/>
<g transform="translate(-45,-48)">
	<path class="st12" d="M187.6,317.9h24.7c1.5,0,2.6,1.2,2.6,2.7v8.2c0,1.5-1.2,2.7-2.6,2.7h-24.7c-1.5,0-2.6-1.2-2.6-2.7v-8.2
		C185,319.1,186.2,317.9,187.6,317.9z"/>
	<path class="st13" d="M188.5,331.6V403c0,16.5,22.9,16.5,22.9,0v-71.4"/>
	<path class="st14" d="M200,349.9L200,349.9c3.9,0,7.1,3.3,7.1,7.3v44.9c0,4-3.2,7.3-7.1,7.3l0,0c-3.9,0-7.1-3.3-7.1-7.3v-44.9
		C192.9,353.2,196.1,349.9,200,349.9z"/>
	<g>
		<line class="st15" x1="189.4" y1="321.5" x2="189.4" y2="330.7"/>
		<line class="st15" x1="193.8" y1="321.5" x2="193.8" y2="330.7"/>
		<line class="st15" x1="198.2" y1="321.5" x2="198.2" y2="330.7"/>
		<line class="st15" x1="202.6" y1="321.5" x2="202.6" y2="330.7"/>
		<line class="st15" x1="207.1" y1="321.5" x2="207.1" y2="330.7"/>
		<line class="st15" x1="211.5" y1="321.5" x2="211.5" y2="330.7"/>
	</g>
</g>
<g transform="translate(4,-35)">
	<path class="st16" d="M173.3,335.2c10.5-12.5,21.8,12.5,34.8,0c10.5-10.7,20.2-2.7,28.3,6.3"/>
	<path class="st16" d="M173.3,353.1c10.5-12.5,21.8,12.5,34.8,0c10.5-10.7,20.2-2.7,28.3,6.3"/>
	<path class="st16" d="M173.3,371c10.5-12.5,21.8,12.5,34.8,0c10.5-10.7,20.2-2.7,28.3,6.3"/>
</g>
<text transform="matrix(1 0 0 1 288 224)" class="st17 st6 st18 st19">RNA LAYERS</text>
<text transform="matrix(1 0 0 1 288 266)" class="st5 st6 st20">Public bulk RNA layer</text>
<text transform="matrix(1 0 0 1 288 301)" class="st21 st22 st23">7 sepsis transcriptomic cohorts</text>
<text transform="matrix(1 0 0 1 288 328)" class="st21 st22 st23">Inflammatory / MHC-II decoupling</text>
<line class="st24" x1="288" y1="358" x2="620" y2="358"/>
<g transform="translate(246,410)">
	<ellipse class="st25" cx="0" cy="5.9" rx="36.2" ry="33.9"/>
	<g>
		<ellipse class="st26" cx="0" cy="-6.6" rx="7" ry="7.7"/>
		<path class="st26" d="M-13,20c0-14.4,26-14.4,26,0H-13z"/>
		<ellipse class="st26" cx="-17" cy="1.2" rx="5.5" ry="6.1"/>
		<path class="st26" d="M-27,22.2c0-11.1,18-11.1,18,0H-27z"/>
		<ellipse class="st26" cx="17" cy="1.2" rx="5.5" ry="6.1"/>
		<path class="st26" d="M9,22.2c0-11.1,18-11.1,18,0H9z"/>
	</g>
</g>
<text transform="matrix(1 0 0 1 300 392)" class="st5 st6 st27">Case-only immune-state layer</text>
<text transform="matrix(1 0 0 1 300 427)" class="st21 st22 st23">499 complete sepsis cases</text>
<text transform="matrix(1 0 0 1 300 454)" class="st21 st22 st23">221 decoupled inflammatory / MHC-II-low</text>
<circle class="st28" cx="80" cy="185" r="9"/>
<path class="st29" d="M699,206h218c11.6,0,21,9.4,21,21l0,0c0,11.6-9.4,21-21,21H699c-11.6,0-21-9.4-21-21l0,0
	C678,215.4,687.4,206,699,206z"/>
<text transform="matrix(1 0 0 1 696.1504 233)" class="st5 st6 st23">Paired RNA-CyTOF bridge</text>
<polygon class="st28" points="661.5,345 741.5,295 741.5,324 902.5,324 902.5,366 741.5,366 741.5,395 "/>
<polygon class="st30" points="960,345 887.3,295 887.3,324 740.9,324 740.9,366 887.3,366 887.3,395 "/>
<linearGradient id="SVGID_00000121989780358737034480000007637865617182784913_" gradientUnits="userSpaceOnUse" x1="-473.9938" y1="1090.2142" x2="-472.9938" y2="1090.2142" gradientTransform="matrix(162 0 0 -42 77516 46134)">
	<stop  offset="0" style="stop-color:#EF4F8D"/>
	<stop  offset="0.5" style="stop-color:#7763D6"/>
	<stop  offset="1" style="stop-color:#2567D8"/>
</linearGradient>
<rect x="729" y="324" style="fill:url(#SVGID_00000121989780358737034480000007637865617182784913_);" width="162" height="42"/>
<g transform="translate(800,345)">
	<path class="st32" d="M-52-20c30,40,74,0,104,40"/>
	<path class="st33" d="M-52,20c30-40,74,0,104-40"/>
	<g>
		<line class="st34" x1="-36" y1="-11" x2="-36" y2="11"/>
		<line class="st34" x1="-18" y1="8" x2="-18" y2="-8"/>
		<line class="st34" x1="0" y1="16" x2="0" y2="-16"/>
		<line class="st34" x1="18" y1="8" x2="18" y2="-8"/>
		<line class="st34" x1="36" y1="-11" x2="36" y2="11"/>
	</g>
</g>
<text transform="matrix(1 0 0 1 693.9023 432)" class="st21 st6 st35">COMBAT 129 matched rows</text>
<text transform="matrix(1 0 0 1 680.5649 456)" class="st21 st22 st35">40 Sepsis-only rows, 34 participants</text>
<path class="st36" d="M978.8,533h536.4c9.3,0,16.8,6.7,16.8,15l0,0c0,8.3-7.5,15-16.8,15H978.8c-9.3,0-16.8-6.7-16.8-15l0,0
	C962,539.7,969.5,533,978.8,533z"/>
<path class="st37" d="M988,165h514c15.5,0,28,12.5,28,28v314c0,15.5-12.5,28-28,28H988c-15.5,0-28-12.5-28-28V193
	C960,177.5,972.5,165,988,165z"/>
<g transform="translate(1085,315)">
	<circle class="st38" cx="-18.5" cy="-6.1" r="72"/>
	<circle class="st39" cx="-53.5" cy="-24.1" r="18"/>
	<circle class="st40" cx="-58.5" cy="-30.1" r="6.8"/>
	<circle class="st41" cx="-22.5" cy="-34.1" r="20"/>
	<circle class="st40" cx="-27.5" cy="-40.1" r="7.6"/>
	<circle class="st42" cx="14.5" cy="23.9" r="18"/>
	<circle class="st40" cx="9.5" cy="17.9" r="6.8"/>
	<circle class="st43" cx="-40.5" cy="18.9" r="15"/>
	<circle class="st40" cx="-45.5" cy="12.9" r="5.7"/>
	<circle class="st44" cx="-13.5" cy="11.9" r="16"/>
	<circle class="st40" cx="-18.5" cy="5.9" r="6.1"/>
	<circle class="st45" cx="-70.5" cy="11.9" r="8"/>
	<circle class="st40" cx="-75.5" cy="5.9" r="4"/>
	<circle class="st46" cx="-23.5" cy="-6.1" r="14"/>
	<circle class="st40" cx="-28.5" cy="-12.1" r="5.3"/>
</g>
<text transform="matrix(1 0 0 1 1180 233)" class="st17 st6 st18 st19">CYTOMETRY CO-EVENT LAYER</text>
<text transform="matrix(1 0 0 1 1159.3933 286.2076)" class="st5 st6 st47">Cytometry co-event layer</text>
<line class="st48" x1="1185" y1="317" x2="1470" y2="317"/>
<circle class="st30" cx="1185" cy="377.7" r="5"/>
<text transform="matrix(1 0 0 1 1206.1152 382.7)" class="st21 st22 st23">Residual CD3/CD14 event features</text>
<circle class="st30" cx="1185" cy="432.2" r="5"/>
<text transform="matrix(1 0 0 1 1206.1152 437.208)" class="st21 st22 st23">Frequency and marker-state</text>
<text transform="matrix(1 0 0 1 1205.5576 466.9158)" class="st21 st22 st23">separated</text>
<circle class="st30" cx="1510" cy="185" r="9"/>
<path class="st30" d="M0,0"/>
<path marker-end="url(#arrowPink)" class="st28" d="M744,475"/>
<path class="st28" d="M0,0"/>
<path marker-end="url(#arrowBlue)" class="st30" d="M856,475"/>
<g transform="translate(800,625)">
	<circle class="st49" cx="18" cy="-85" r="62"/>
	<path class="st50" d="M-44-85c0-34.2,27.8-62,62-62"/>
	<path class="st51" d="M18-147c34.2,0,62,27.8,62,62"/>
	<circle class="st52" cx="18" cy="-85" r="46"/>
	<ellipse class="st53" cx="18" cy="-85" rx="25" ry="39"/>
	<ellipse transform="matrix(0.866 -0.5 0.5 0.866 44.9116 -2.3882)" class="st54" cx="18" cy="-85" rx="39" ry="25"/>
	<ellipse transform="matrix(0.5 -0.866 0.866 0.5 82.6095 -26.9072)" class="st54" cx="18" cy="-85" rx="25" ry="39"/>
	<ellipse class="st53" cx="18" cy="-85" rx="25" ry="39"/>
	<ellipse transform="matrix(0.866 -0.5 0.5 0.866 44.9116 -2.3882)" class="st54" cx="18" cy="-85" rx="39" ry="25"/>
	<ellipse transform="matrix(0.5 -0.866 0.866 0.5 82.6095 -26.9072)" class="st54" cx="18" cy="-85" rx="25" ry="39"/>
	<circle class="st55" cx="18" cy="-85" r="8"/>
</g>
<path class="st56" d="M374.8,842h854.4c12.6,0,22.8,4.9,22.8,11l0,0c0,6.1-10.2,11-22.8,11H374.8c-12.6,0-22.8-4.9-22.8-11l0,0
	C352,846.9,362.2,842,374.8,842z"/>
<path class="st57" d="M388,618.8h824c21,0,38,17,38,38v154c0,21-17,38-38,38H388c-21,0-38-17-38-38v-154
	C350,635.8,367,618.8,388,618.8z"/>
<g transform="translate(438,728) scale(0.72)">
	<ellipse class="st5" cx="-16" cy="-62.8" rx="42.7" ry="42.8"/>
	<path class="st58" d="M-32-69.7v-15c0-15,32-15,32,0v15"/>
	<path class="st59" d="M-30-69.7h28c3.9,0,7,3.1,7,7v19c0,3.9-3.1,7-7,7h-28c-3.9,0-7-3.1-7-7v-19C-37-66.5-33.9-69.7-30-69.7z"/>
	<circle class="st5" cx="-16" cy="-54.7" r="5"/>
	<path class="st5" d="M-17-53.7h2c1.1,0,2,0.9,2,2v8c0,1.1-0.9,2-2,2h-2c-1.1,0-2-0.9-2-2v-8C-19-52.8-18.1-53.7-17-53.7z"/>
</g>
<text transform="matrix(1 0 0 1 490 658.9332)" class="st60 st6 st18 st19">LOCKED CENTRAL CLAIM</text>
<text transform="matrix(1 0 0 1 490 699.2001)" class="st5 st6 st47">Systemic inflammatory/MHC-II decoupling</text>
<linearGradient id="SVGID_00000068646420866677637880000000660603058659705268_" gradientUnits="userSpaceOnUse" x1="-475.5912" y1="1106.7" x2="-474.5912" y2="1106.7" gradientTransform="matrix(340 0 0 -5 162193 6251)">
	<stop  offset="0" style="stop-color:#008F86"/>
	<stop  offset="1" style="stop-color:#7ED9B8"/>
</linearGradient>
<path style="fill:url(#SVGID_00000068646420866677637880000000660603058659705268_);" d="M494.5,715h335c1.4,0,2.5,1.1,2.5,2.5l0,0
	c0,1.4-1.1,2.5-2.5,2.5h-335c-1.4,0-2.5-1.1-2.5-2.5l0,0C492,716.1,493.1,715,494.5,715z"/>
<text transform="matrix(1 0 0 1 490.9795 757.1134)" class="st21 st22 st23">is linked to CD3/CD14 co-event abundance in paired Sepsis samples,</text>
<text transform="matrix(1 0 0 1 492.1675 786.0002)" class="st21 st22 st23">while residual co-events show activation-state remodeling rather</text>
<text transform="matrix(1 0 0 1 490.2881 814.3743)" class="st21 st22 st23">than uniform HLA-DR loss.</text>
<path class="st62" d="M780,900l20,20l20-20"/>
<path class="st62" d="M780,879l20,20l20-20"/>
<path class="st63" d="M152,920.5h536c17.7,0,32,14.3,32,32v81c0,17.7-14.3,32-32,32H152c-17.7,0-32-14.3-32-32v-81
	C120,934.8,134.3,920.5,152,920.5z"/>
<g transform="translate(178,1008)">
	<circle class="st64" cx="0" cy="-29.8" r="32"/>
	<path class="st65" d="M-13-49.8h26c2.2,0,4,1.8,4,4v34c0,2.2-1.8,4-4,4h-26c-2.2,0-4-1.8-4-4v-34C-17-48-15.2-49.8-13-49.8z"/>
	<path class="st65" d="M-5-54.8H5c1.7,0,3,1.3,3,3v4c0,1.7-1.3,3-3,3H-5c-1.7,0-3-1.3-3-3v-4C-8-53.5-6.7-54.8-5-54.8z"/>
	<path class="st66" d="M-9-30.8H9 M0-39.8v18"/>
	<path class="st67" d="M-9-14.8H9"/>
</g>
<text transform="matrix(1 0 0 1 235.9492 951.3798)" class="st68 st6 st18 st19">EXPLORATORY CLINICAL ANCHOR</text>
<text transform="matrix(1 0 0 1 236.1063 983.2734)" class="st5 st6 st20">Exploratory clinical anchor</text>
<text transform="matrix(1 0 0 1 236.8983 1017.9998)" class="st21 st22 st23">Death28 used only as context</text>
<text transform="matrix(1 0 0 1 236.8983 1044.4751)" class="st21 st22 st23">No prediction model</text>
<path class="st69" d="M884,920.5h656c17.7,0,32,14.3,32,32v81c0,17.7-14.3,32-32,32H884c-17.7,0-32-14.3-32-32v-81
	C852,934.8,866.3,920.5,884,920.5z"/>
<g transform="translate(817,1008)">
	<ellipse class="st70" cx="99.2" cy="-30" rx="38.4" ry="35"/>
	<path class="st71" d="M99.2-52l20.3,8l-3.4,21c-3.4,12-12.4,18-16.9,20c-4.5-2-13.6-8-16.9-20l-3.4-21L99.2-52z"/>
	<path class="st72" d="M89-29l7.9,7l14.7-18"/>
</g>
<text transform="matrix(1 0 0 1 995.9829 953.7002)" class="st70 st6 st18 st19">CLAIM BOUNDARIES</text>
<text transform="matrix(1 0 0 1 996.5938 988.7158)" class="st70 st6 st73">Claim boundaries</text>
<line class="st74" x1="1252" y1="944.2" x2="1252" y2="1044.2"/>
<g>
	<text transform="matrix(1 0 0 1 1291.6235 956)" class="st70 st6 st75">×</text>
	<text transform="matrix(1 0 0 1 1313.3032 956)" class="st21 st22 st76">No MR causal claim</text>
	<text transform="matrix(1 0 0 1 1291.6235 978)" class="st70 st6 st75">×</text>
	<text transform="matrix(1 0 0 1 1313.3032 978)" class="st21 st22 st76">No clinical prediction model</text>
	<text transform="matrix(1 0 0 1 1291.6235 1000)" class="st70 st6 st75">×</text>
	<text transform="matrix(1 0 0 1 1313.3032 1000)" class="st21 st22 st76">No physical CD3/CD14 complex</text>
	<text transform="matrix(1 0 0 1 1291.6235 1022)" class="st70 st6 st75">×</text>
	<text transform="matrix(1 0 0 1 1313.3032 1022)" class="st21 st22 st76">No immune synapse claim</text>
	<text transform="matrix(1 0 0 1 1291.6235 1044)" class="st70 st6 st75">×</text>
	<text transform="matrix(1 0 0 1 1313.3032 1044)" class="st21 st22 st76">No therapeutic recommendation</text>
</g>
</svg>
