<?xml version="1.0" encoding="utf-8"?>
<!-- Generator: Adobe Illustrator 28.1.0, SVG Export Plug-In . SVG Version: 6.00 Build 0)  -->
<svg version="1.1" id="图层_1" xmlns="http://www.w3.org/2000/svg" xmlns:xlink="http://www.w3.org/1999/xlink" x="0px" y="0px"
	 viewBox="0 0 1800 1160" style="enable-background:new 0 0 1800 1160;" xml:space="preserve">
<style type="text/css">
	.st0{opacity:0.15;}
	.st1{fill:none;stroke:#7A8BB8;}
	.st2{opacity:0.22;}
	.st3{fill:#7A8BB8;}
	.st4{fill:#101B49;}
	.st5{font-family:'Arial-BoldMT';}
	.st6{font-size:38px;}
	.st7{fill:url(#SVGID_1_);}
	.st8{opacity:0.18;fill:#F2568F;enable-background:new    ;}
	.st9{fill:url(#SVGID_00000080205534152235146930000000525080434846594460_);stroke:#D94B7A;stroke-width:1.9;}
	.st10{opacity:0.95;fill:url(#SVGID_00000145023381301816656240000002284307748662524854_);enable-background:new    ;}
	.st11{fill:#FFF9FB;stroke:#EB8BA9;stroke-width:1.2;}
	.st12{fill:#FFFFFF;stroke:#EB8BA9;stroke-width:1.2;}
	.st13{fill:#FFFFFF;stroke:#9B2356;stroke-width:2;}
	.st14{opacity:0.92;fill:url(#SVGID_00000034074105414802869080000000944782690479955868_);enable-background:new    ;}
	.st15{fill:#F7D7E2;stroke:#9B2356;stroke-width:1.5;}
	.st16{stroke:#9B2356;stroke-width:1.2;}
	.st17{fill:none;stroke:#F2568F;stroke-width:2.4;stroke-linecap:round;}
	.st18{fill:#506085;}
	.st19{font-size:15px;}
	.st20{font-size:30px;}
	.st21{fill:none;stroke:#EAA1B6;stroke-width:1.4;stroke-linecap:round;stroke-dasharray:3,5;}
	.st22{fill:#FCE7F0;stroke:#F2568F;stroke-width:1.3;}
	.st23{fill:none;stroke:#F2568F;stroke-width:3.4;stroke-linecap:round;stroke-linejoin:round;}
	.st24{fill:#16244F;}
	.st25{font-family:'ArialMT';}
	.st26{font-size:19px;}
	.st27{opacity:0.17;fill:#1D5CC5;enable-background:new    ;}
	.st28{fill:url(#SVGID_00000013157494456647472920000008782864485108138130_);stroke:#1D5CC5;stroke-width:1.9;}
	.st29{opacity:0.95;fill:url(#SVGID_00000078767066546414898380000006079906028990377891_);enable-background:new    ;}
	.st30{fill:#FFFFFF;stroke:#2E61C2;stroke-width:1.2;}
	.st31{fill:#A9D6FF;stroke:#2E61C2;}
	.st32{fill:#327EC8;}
	.st33{fill:#B6C9FF;stroke:#2E61C2;}
	.st34{fill:#6D8CD6;}
	.st35{fill:#C4B8F5;stroke:#604CB8;}
	.st36{fill:#8069D1;}
	.st37{fill:#A9C8F5;stroke:#2E61C2;}
	.st38{fill:#5F8ED6;}
	.st39{fill:#D0C5F0;stroke:#604CB8;}
	.st40{font-size:28px;}
	.st41{fill:none;stroke:#97BDF4;stroke-width:1.4;stroke-linecap:round;stroke-dasharray:3,5;}
	.st42{fill:#1D5CC5;}
	.st43{fill:#FFFFFF;stroke:#C7CDE4;}
	.st44{opacity:0.9;fill:url(#SVGID_00000044154635032372849150000005475091373866824618_);enable-background:new    ;}
	.st45{fill:none;stroke:#F2568F;stroke-width:4;stroke-linecap:round;}
	.st46{fill:none;stroke:#2D71C8;stroke-width:4;stroke-linecap:round;}
	.st47{opacity:0.85;fill:none;stroke:#9B8BD7;stroke-width:4;stroke-linecap:round;enable-background:new    ;}
	.st48{fill:none;stroke:#9B8BD7;stroke-width:4;stroke-linecap:round;enable-background:new    ;}
	.st49{fill:#F2568F;}
	.st50{fill:#F2568F;enable-background:new    ;}
	
		.st51{opacity:0.98;fill:#FFFFFF;stroke:url(#SVGID_00000106119665354251662290000015521247582023683229_);stroke-width:7;enable-background:new    ;}
	.st52{fill:#F8FBFF;stroke:#A7B2D8;stroke-width:1.2;}
	.st53{fill:none;stroke:#101B49;stroke-width:2;}
	.st54{opacity:0.75;fill:#22A69A;enable-background:new    ;}
	.st55{opacity:0.14;fill:#13A59A;enable-background:new    ;}
	.st56{fill:url(#SVGID_00000078738572054637283790000017324718399194622648_);stroke:#0B837D;stroke-width:2;}
	.st57{opacity:0.42;}
	.st58{fill:none;stroke:#109C91;stroke-width:1.8;stroke-linecap:round;}
	.st59{fill:none;stroke:#109C91;stroke-width:1.6;stroke-linecap:round;}
	.st60{fill:none;stroke:#109C91;stroke-width:1.4;stroke-linecap:round;}
	.st61{fill:none;stroke:#109C91;stroke-width:1.2;stroke-linecap:round;}
	.st62{fill:none;stroke:#109C91;stroke-linecap:round;}
	.st63{fill:#109C91;}
	.st64{fill:url(#SVGID_00000115480381433194369070000006711657546755687840_);}
	.st65{fill:none;stroke:#63C7B0;stroke-width:6;stroke-linecap:round;stroke-linejoin:round;}
	
		.st66{opacity:0.65;fill:none;stroke:#63C7B0;stroke-width:6;stroke-linecap:round;stroke-linejoin:round;enable-background:new    ;}
	.st67{fill:#FFFFFF;stroke:#B8B2E4;stroke-width:1.5;stroke-dasharray:2,5;}
	.st68{fill:#F5F3FF;stroke:#4B3C9B;stroke-width:1.6;}
	.st69{fill:none;stroke:#4B3C9B;stroke-width:2.4;stroke-linecap:round;stroke-linejoin:round;}
	.st70{fill:#1D2463;}
	.st71{font-size:18px;}
	.st72{font-size:25px;}
	.st73{fill:none;stroke:#BAB7D8;stroke-width:1.5;}
	.st74{fill:#F1EEFF;}
	.st75{opacity:0.9;}
	.st76{fill:#5B52A4;}
	.st77{fill:#172350;}
	.st78{fill:#5B52A4;stroke:#5B52A4;stroke-width:2.5;stroke-linecap:round;}
	.st79{fill:none;stroke:#5B52A4;stroke-width:2.5;stroke-linecap:round;}
	.st80{fill:none;stroke:#5B52A4;stroke-width:2;stroke-linecap:round;stroke-linejoin:round;}
	.st81{fill:#5B52A4;stroke:#5B52A4;stroke-width:2;stroke-linecap:round;stroke-linejoin:round;}
</style>
<g class="st0">
	<path class="st1" d="M108,176c192-64,328-6,504-78"/>
	<path class="st1" d="M1168,105c140,49,298-7,482,55"/>
	<path class="st1" d="M1486,730c119-36,184,30,248-16"/>
</g>
<g class="st2">
	<circle class="st3" cx="108" cy="176" r="3"/>
	<circle class="st3" cx="300" cy="112" r="2.5"/>
	<circle class="st3" cx="436" cy="170" r="2.5"/>
	<circle class="st3" cx="612" cy="98" r="3"/>
	<circle class="st3" cx="1168" cy="105" r="3"/>
	<circle class="st3" cx="1308" cy="154" r="2.5"/>
	<circle class="st3" cx="1466" cy="98" r="2.5"/>
	<circle class="st3" cx="1650" cy="160" r="3"/>
	<circle class="st3" cx="1486" cy="730" r="2.5"/>
	<circle class="st3" cx="1605" cy="694" r="2.5"/>
	<circle class="st3" cx="1670" cy="760" r="2.5"/>
	<circle class="st3" cx="1734" cy="714" r="2.5"/>
</g>
<text transform="matrix(1 0 0 1 90 124)" class="st4 st5 st6">Figure 6 Working interpretation of RNA-CyTOF immune-state decoupling</text>
<linearGradient id="SVGID_1_" gradientUnits="userSpaceOnUse" x1="-117.6424" y1="-10.9286" x2="-116.6424" y2="-10.9286" gradientTransform="matrix(330 0 0 7 38912 233)">
	<stop  offset="0" style="stop-color:#F2548B"/>
	<stop  offset="0.5" style="stop-color:#8B70D6"/>
	<stop  offset="1" style="stop-color:#28A7B5"/>
</linearGradient>
<path class="st7" d="M93.5,153h323c1.9,0,3.5,1.6,3.5,3.5l0,0c0,1.9-1.6,3.5-3.5,3.5h-323c-1.9,0-3.5-1.6-3.5-3.5l0,0
	C90,154.6,91.6,153,93.5,153z"/>
<path class="st8" d="M105,205h590c16.6,0,30,13.4,30,30v280c0,16.6-13.4,30-30,30H105c-16.6,0-30-13.4-30-30V235
	C75,218.4,88.4,205,105,205z"/>
<linearGradient id="SVGID_00000021090534948039045610000018403193565043249050_" gradientUnits="userSpaceOnUse" x1="-117.8184" y1="-0.2388" x2="-116.8184" y2="0.7612" gradientTransform="matrix(650 0 0 335 76652 265)">
	<stop  offset="0" style="stop-color:#FFF4F8"/>
	<stop  offset="0.65" style="stop-color:#FFF9FB"/>
	<stop  offset="1" style="stop-color:#FCE6ED"/>
</linearGradient>
<path style="fill:url(#SVGID_00000021090534948039045610000018403193565043249050_);stroke:#D94B7A;stroke-width:1.9;" d="M100,185
	h590c16.6,0,30,13.4,30,30v275c0,16.6-13.4,30-30,30H100c-16.6,0-30-13.4-30-30V215C70,198.4,83.4,185,100,185z"/>
<linearGradient id="SVGID_00000008122096886917059130000013874812566073733513_" gradientUnits="userSpaceOnUse" x1="-117.8185" y1="-4.2059" x2="-116.8185" y2="-4.2059" gradientTransform="matrix(650 0 0 17 76652 589)">
	<stop  offset="0" style="stop-color:#F2568F"/>
	<stop  offset="1" style="stop-color:#F4B7C9"/>
</linearGradient>
<path style="opacity:0.95;fill:url(#SVGID_00000008122096886917059130000013874812566073733513_);enable-background:new    ;" d="
	M78.5,509h633c4.7,0,8.5,3.8,8.5,8.5l0,0c0,4.7-3.8,8.5-8.5,8.5h-633c-4.7,0-8.5-3.8-8.5-8.5l0,0C70,512.8,73.8,509,78.5,509z"/>
<g transform="translate(116 248)">
	<ellipse class="st11" cx="88.5" cy="82" rx="93.5" ry="92.6"/>
	<ellipse class="st12" cx="121.1" cy="77" rx="42.1" ry="41"/>
	<path class="st13" d="M53,16h4c8.3,0,15,6.7,15,15v108c0,8.3-6.7,15-15,15h-4c-8.3,0-15-6.7-15-15V31C38,22.7,44.7,16,53,16z"/>
	
		<linearGradient id="SVGID_00000002343071251558608080000001672660904517966487_" gradientUnits="userSpaceOnUse" x1="-345.0833" y1="-0.4302" x2="-344.0833" y2="-0.4302" gradientTransform="matrix(24 0 0 86 8325 135)">
		<stop  offset="0" style="stop-color:#F2568F"/>
		<stop  offset="1" style="stop-color:#F4B7C9"/>
	</linearGradient>
	<path style="opacity:0.92;fill:url(#SVGID_00000002343071251558608080000001672660904517966487_);enable-background:new    ;" d="
		M55,55L55,55c6.6,0,12,5.4,12,12v62c0,6.6-5.4,12-12,12l0,0c-6.6,0-12-5.4-12-12V67C43,60.4,48.4,55,55,55z"/>
	<path class="st15" d="M39,18h32c1.7,0,3,1.3,3,3v12c0,1.7-1.3,3-3,3H39c-1.7,0-3-1.3-3-3V21C36,19.3,37.3,18,39,18z"/>
	<path class="st16" d="M41,21v12 M47,21v12 M53,21v12 M59,21v12 M65,21v12"/>
	<g>
		<path class="st17" d="M92,77.4c7.8-7.5,17.2,7.5,25.8-0.9s18.1-4.7,25,3.7"/>
		<path class="st17" d="M98,96.1c8.6-8.4,16.4,6.5,25.8-1.9s15.5-4.7,22.4,3.7"/>
		<path class="st17" d="M97.2,60.6c8.6-7.5,17.2,7.5,26.7-0.9s13.8-3.7,20.7,4.7"/>
	</g>
</g>
<text transform="matrix(1 0 0 1 318 248)" class="st18 st5 st19">RNA LAYER</text>
<text transform="matrix(1 0 0 1 318 294)" class="st4 st5 st20">Whole-blood RNA</text>
<line class="st21" x1="318" y1="330" x2="688" y2="330"/>
<g transform="translate(318 354)">
	<circle class="st22" cx="15" cy="24" r="18"/>
	<path class="st23" d="M15,36V12 M15,12L6,22 M15,12l9,10"/>
	<text transform="matrix(1 0 0 1 52 13)" class="st24 st25 st26">Inflammatory and immunometabolic</text>
	<text transform="matrix(1 0 0 1 352.957 13)" class="st24 st25 st26"> </text>
	<text transform="matrix(1 0 0 1 52 41)" class="st24 st25 st26">programs rise</text>
</g>
<g transform="translate(318 434)">
	<circle class="st22" cx="15" cy="24" r="18"/>
	<path class="st23" d="M15,12v24 M15,36L6,26 M15,36l9-10"/>
	<text transform="matrix(1 0 0 1 52 13)" class="st24 st25 st26">MHC-II/CD74 and HLA-DR</text>
	<text transform="matrix(1 0 0 1 278.998 13)" class="st24 st25 st26"> </text>
	<text transform="matrix(1 0 0 1 52 41)" class="st24 st25 st26">programs fall</text>
</g>
<path class="st27" d="M1115,205h590c16.6,0,30,13.4,30,30v280c0,16.6-13.4,30-30,30h-590c-16.6,0-30-13.4-30-30V235
	C1085,218.4,1098.4,205,1115,205z"/>
<linearGradient id="SVGID_00000003786631729339988270000013400781741160980659_" gradientUnits="userSpaceOnUse" x1="-117.8184" y1="-0.2388" x2="-116.8184" y2="0.7612" gradientTransform="matrix(650 0 0 335 77662 265)">
	<stop  offset="0" style="stop-color:#F1F7FF"/>
	<stop  offset="0.65" style="stop-color:#F9FCFF"/>
	<stop  offset="1" style="stop-color:#E3F0FF"/>
</linearGradient>
<path style="fill:url(#SVGID_00000003786631729339988270000013400781741160980659_);stroke:#1D5CC5;stroke-width:1.9;" d="M1110,185
	h590c16.6,0,30,13.4,30,30v275c0,16.6-13.4,30-30,30h-590c-16.6,0-30-13.4-30-30V215C1080,198.4,1093.4,185,1110,185z"/>
<linearGradient id="SVGID_00000013154411998747932630000009767797005100642480_" gradientUnits="userSpaceOnUse" x1="-117.8185" y1="-4.2059" x2="-116.8185" y2="-4.2059" gradientTransform="matrix(650 0 0 17 77662 589)">
	<stop  offset="0" style="stop-color:#1D5CC5"/>
	<stop  offset="1" style="stop-color:#96C7FF"/>
</linearGradient>
<path style="opacity:0.95;fill:url(#SVGID_00000013154411998747932630000009767797005100642480_);enable-background:new    ;" d="
	M1088.5,509h633c4.7,0,8.5,3.8,8.5,8.5l0,0c0,4.7-3.8,8.5-8.5,8.5h-633c-4.7,0-8.5-3.8-8.5-8.5l0,0
	C1080,512.8,1083.8,509,1088.5,509z"/>
<g transform="translate(1122 248)">
	<circle class="st30" cx="84" cy="82" r="83"/>
	<circle class="st31" cx="48" cy="57" r="24"/>
	<circle class="st32" cx="48" cy="57" r="12"/>
	<circle class="st33" cx="104" cy="47" r="24"/>
	<circle class="st34" cx="104" cy="47" r="12"/>
	<circle class="st35" cx="130" cy="103" r="25"/>
	<circle class="st36" cx="130" cy="103" r="13"/>
	<circle class="st37" cx="80" cy="117" r="22"/>
	<circle class="st38" cx="80" cy="117" r="11"/>
	<circle class="st37" cx="47" cy="117" r="20"/>
	<circle class="st38" cx="47" cy="117" r="10"/>
	<circle class="st39" cx="82" cy="84" r="19"/>
	<circle class="st36" cx="82" cy="84" r="9"/>
	<circle class="st37" cx="24" cy="89" r="10"/>
	<circle class="st38" cx="24" cy="89" r="5"/>
</g>
<text transform="matrix(1 0 0 1 1340 248)" class="st18 st5 st19">EVENT-DERIVED CYTOMETRY SUMMARY</text>
<text transform="matrix(1 0 0 1 1340 287)" class="st4 st5 st40">Residual CD3/CD14</text>
<text transform="matrix(1 0 0 1 1599.8613 287)" class="st4 st5 st40"> </text>
<text transform="matrix(1 0 0 1 1340 321)" class="st4 st5 st40">co-event signal</text>
<line class="st41" x1="1340" y1="352" x2="1688" y2="352"/>
<g transform="translate(1340 390)">
	<circle class="st42" cx="0" cy="0" r="5"/>
	<text transform="matrix(1 0 0 1 20 7)" class="st24 st25 st26">Co-event abundance links to</text>
	<text transform="matrix(1 0 0 1 260.8213 7)" class="st24 st25 st26"> </text>
	<text transform="matrix(1 0 0 1 20 35)" class="st24 st25 st26">RNA decoupling</text>
</g>
<g transform="translate(1340 455)">
	<circle class="st42" cx="0" cy="0" r="5"/>
	<text transform="matrix(1 0 0 1 20 7)" class="st24 st25 st26">Marker-state remodeling is not</text>
	<text transform="matrix(1 0 0 1 276.6021 7)" class="st24 st25 st26"> </text>
	<text transform="matrix(1 0 0 1 20 35)" class="st24 st25 st26">uniform HLA-DR loss</text>
</g>
<g>
	<path class="st43" d="M779.6,232h240c11.6,0,21,9.4,21,21l0,0c0,11.6-9.4,21-21,21h-240c-11.6,0-21-9.4-21-21l0,0
		C758.6,241.4,768,232,779.6,232z"/>
	<text transform="matrix(1 0 0 1 779.968 259)" class="st4 st5 st26">paired RNA–CyTOF bridge</text>
	
		<linearGradient id="SVGID_00000129172848753745960680000004596815053218173829_" gradientUnits="userSpaceOnUse" x1="-117.6733" y1="-0.3" x2="-116.6733" y2="-0.3" gradientTransform="matrix(360 0 0 100 43082 382)">
		<stop  offset="0" style="stop-color:#F2568F"/>
		<stop  offset="0.48" style="stop-color:#8B70D6"/>
		<stop  offset="1" style="stop-color:#1D5CC5"/>
	</linearGradient>
	<path style="opacity:0.9;fill:url(#SVGID_00000129172848753745960680000004596815053218173829_);enable-background:new    ;" d="
		M719.6,352l93-50v31h174v-31l93,50l-93,50v-31h-174v31L719.6,352z"/>
	<g transform="translate(836 342)">
		<path class="st45" d="M8,10c18-24,38-24,56,0s38,24,56,0"/>
		<path class="st46" d="M8,10c18,24,38,24,56,0s38-24,56,0"/>
		<path class="st47" d="M26-6v32 M45-6v32 M64-6v32 M83-6v32 M102-6v32"/>
	</g>
</g>
<path class="st48" d="M0,0"/>
<path marker-end="url(#arrowPink)" class="st49" d="M823,400"/>
<path class="st50" d="M0,0"/>
<path marker-end="url(#arrowBlue)" class="st42" d="M977,400"/>
<g transform="translate(900 680)">
	
		<linearGradient id="SVGID_00000173136327276380934030000013940607564178845597_" gradientUnits="userSpaceOnUse" x1="-1917.1439" y1="-1.1288" x2="-1916.1439" y2="-1.1288" gradientTransform="matrix(132 0 0 132 252992 14)">
		<stop  offset="0" style="stop-color:#F2568F"/>
		<stop  offset="0.48" style="stop-color:#8B70D6"/>
		<stop  offset="1" style="stop-color:#1D5CC5"/>
	</linearGradient>
	
		<circle style="opacity:0.98;fill:#FFFFFF;stroke:url(#SVGID_00000173136327276380934030000013940607564178845597_);stroke-width:7;enable-background:new    ;" cx="-5" cy="-135" r="66"/>
	<circle class="st52" cx="-5" cy="-135" r="50"/>
	<g>
		<circle class="st53" cx="-23" cy="-135" r="23"/>
		<circle class="st53" cx="13" cy="-135" r="23"/>
		<circle class="st53" cx="-5" cy="-155" r="23"/>
		<circle class="st53" cx="-5" cy="-115" r="23"/>
	</g>
	<circle class="st54" cx="-5" cy="-135" r="10"/>
</g>
<path class="st55" d="M530,687.9h740c42,0,76,34,76,76v66c0,42-34,76-76,76H530c-42,0-76-34-76-76v-66
	C454,721.9,488,687.9,530,687.9z"/>
<linearGradient id="SVGID_00000096030636557681697240000011999257121358602644_" gradientUnits="userSpaceOnUse" x1="-117.8689" y1="-0.7875" x2="-116.8689" y2="0.2125" gradientTransform="matrix(900 0 0 240 106532 815)">
	<stop  offset="0" style="stop-color:#F1FFFC"/>
	<stop  offset="0.62" style="stop-color:#F7FFFD"/>
	<stop  offset="1" style="stop-color:#E3F8F1"/>
</linearGradient>
<path style="fill:url(#SVGID_00000096030636557681697240000011999257121358602644_);stroke:#0B837D;stroke-width:2;" d="M528,626
	h744c43.1,0,78,34.9,78,78v84c0,43.1-34.9,78-78,78H528c-43.1,0-78-34.9-78-78v-84C450,660.9,484.9,626,528,626z"/>
<g transform="translate(925 760)" class="st57">
	<path class="st58" d="M23,59.5c80-64,190-64,290-18s170,26,210-100"/>
	<path class="st59" d="M33,67.5c82-59,182-62,282-20s168,22,214-94"/>
	<path class="st60" d="M41,75.5c82-53,178-58,278-22s166,21,216-88"/>
	<path class="st61" d="M49,83.5c82-48,174-52,274-24s166,20,218-82"/>
	<path class="st62" d="M58,91.5c81-43,171-47,271-26s164,19,218-76"/>
	<g>
		<circle class="st63" cx="41" cy="75.5" r="2.2"/>
		<circle class="st63" cx="85" cy="51.5" r="2.2"/>
		<circle class="st63" cx="129" cy="30.5" r="2.2"/>
		<circle class="st63" cx="173" cy="19.5" r="2.2"/>
		<circle class="st63" cx="217" cy="17.5" r="2.2"/>
		<circle class="st63" cx="261" cy="30.5" r="2.2"/>
		<circle class="st63" cx="305" cy="49.5" r="2.2"/>
		<circle class="st63" cx="349" cy="63.5" r="2.2"/>
		<circle class="st63" cx="393" cy="72.5" r="2.2"/>
		<circle class="st63" cx="437" cy="74.5" r="2.2"/>
		<circle class="st63" cx="481" cy="57.5" r="2.2"/>
		<circle class="st63" cx="525" cy="1.5" r="2.2"/>
		<circle class="st63" cx="55" cy="97.5" r="2.2"/>
		<circle class="st63" cx="99" cy="72.5" r="2.2"/>
		<circle class="st63" cx="143" cy="51.5" r="2.2"/>
		<circle class="st63" cx="187" cy="41.5" r="2.2"/>
		<circle class="st63" cx="231" cy="44.5" r="2.2"/>
		<circle class="st63" cx="275" cy="57.5" r="2.2"/>
		<circle class="st63" cx="319" cy="68.5" r="2.2"/>
		<circle class="st63" cx="363" cy="76.5" r="2.2"/>
		<circle class="st63" cx="407" cy="82.5" r="2.2"/>
		<circle class="st63" cx="451" cy="77.5" r="2.2"/>
		<circle class="st63" cx="495" cy="48.5" r="2.2"/>
		<circle class="st63" cx="539" cy="-15.5" r="2.2"/>
	</g>
</g>
<text transform="matrix(1 0 0 1 520 665.496)" class="st18 st5 st19">INTERPRETIVE BOUNDARY</text>
<text transform="matrix(1 0 0 1 520 711.5)" class="st4 st5 st20">Bounded systems interpretation</text>
<linearGradient id="SVGID_00000017486629841827544880000016286094045476714920_" gradientUnits="userSpaceOnUse" x1="-117.6767" y1="-36.9" x2="-116.6767" y2="-36.9" gradientTransform="matrix(365 0 0 6 43472 961)">
	<stop  offset="0" style="stop-color:#13A59A"/>
	<stop  offset="1" style="stop-color:#84D4A5"/>
</linearGradient>
<path style="fill:url(#SVGID_00000017486629841827544880000016286094045476714920_);" d="M523,736.6h359c1.7,0,3,1.3,3,3l0,0
	c0,1.7-1.3,3-3,3H523c-1.7,0-3-1.3-3-3l0,0C520,737.9,521.3,736.6,523,736.6z"/>
<text transform="matrix(1 0 0 1 520 781.5)" class="st24 st25 st26">Population-level suppression and event-compartment</text>
<text transform="matrix(1 0 0 1 968.8657 781.5)" class="st24 st25 st26"> </text>
<text transform="matrix(1 0 0 1 520 810.5)" class="st24 st25 st26">activation-state remodeling can coexist</text>
<g transform="translate(900 998)">
	<path class="st65" d="M-18,0L0,18L18,0"/>
	<path class="st66" d="M-18,20L0,38l18-18"/>
</g>
<path class="st67" d="M191,966h1398c22.6,0,41,18.4,41,41l0,0c0,22.6-18.4,41-41,41H191c-22.6,0-41-18.4-41-41l0,0
	C150,984.4,168.4,966,191,966z"/>
<g transform="translate(196 1069)">
	<circle class="st68" cx="30.5" cy="-62" r="31"/>
	<g transform="translate(17 11)">
		<path class="st69" d="M18.5-93l-11,24"/>
		<path class="st69" d="M16.5-88l8,11"/>
		<path class="st69" d="M6.5-69l16,7"/>
		<path class="st69" d="M2.5-55h26"/>
		<path class="st69" d="M9.5-62l-3,7"/>
		<path class="st69" d="M21.5-62l4,7"/>
		<path class="st69" d="M13.5-83h3c1.1,0,2,0.9,2,2v11c0,1.1-0.9,2-2,2h-3c-1.1,0-2-0.9-2-2v-11C11.5-82.1,12.4-83,13.5-83z"/>
		<circle class="st69" cx="9.5" cy="-83" r="2"/>
	</g>
</g>
<text transform="matrix(1 0 0 1 298.6145 997)" class="st70 st25 st71">Future</text>
<text transform="matrix(1 0 0 1 376.3855 997)" class="st70 st5 st72"> </text>
<text transform="matrix(1 0 0 1 298.6145 1025)" class="st70 st25 st71">validation</text>
<line class="st73" x1="485.8" y1="980.5" x2="485.8" y2="1028.5"/>
<g transform="translate(560 1067)">
	<circle class="st74" cx="26.2" cy="-62.5" r="30"/>
	<g class="st75">
		<circle class="st76" cx="18.2" cy="-69.5" r="9"/>
		<circle class="st76" cx="35.2" cy="-69.5" r="9"/>
		<path class="st76" d="M6.2-45.5c2-13,22-13,25,0H6.2z"/>
		<path class="st76" d="M23.2-45.5c3-13,23-13,25,0H23.2z"/>
	</g>
	<text transform="matrix(1 0 0 1 76.2461 -70.5)" class="st77 st25 st71">Prospective paired</text>
	<text transform="matrix(1 0 0 1 225.3262 -70.5)" class="st77 st25 st71"> </text>
	<text transform="matrix(1 0 0 1 76.2461 -45.5)" class="st77 st25 st71">cytometry/RNA cohorts</text>
</g>
<line class="st73" x1="882" y1="982.5" x2="882" y2="1030.5"/>
<g transform="translate(940 1067)">
	<circle class="st74" cx="18" cy="-58.6" r="30"/>
	<g>
		<circle class="st78" cx="3" cy="-54.6" r="3"/>
		<circle class="st78" cx="18" cy="-68.6" r="3"/>
		<circle class="st78" cx="35" cy="-64.6" r="3"/>
		<circle class="st78" cx="31" cy="-45.6" r="3"/>
		<path class="st79" d="M3-54.6c8-8,8-8,15-14"/>
		<path class="st79" d="M18-68.6c8,0,11,2,17,4"/>
		<path class="st79" d="M35-64.6c2,10,2,13-4,19"/>
		<path class="st79" d="M3-54.6c11,8,17,10,28,9"/>
	</g>
	<text transform="matrix(1 0 0 1 67.9832 -66.6035)" class="st77 st25 st71">Imaging flow</text>
	<text transform="matrix(1 0 0 1 169.031 -66.6035)" class="st77 st25 st71"> </text>
	<text transform="matrix(1 0 0 1 67.9832 -41.6035)" class="st77 st25 st71">or PIC-seq</text>
</g>
<line class="st73" x1="1186" y1="980.5" x2="1186" y2="1028.5"/>
<g transform="translate(1270 1067)">
	<circle class="st74" cx="9.2" cy="-60" r="30"/>
	<g>
		<path class="st80" d="M9.2-80c8,0,10,7,7,12c10,1,12,12,3,17c2,9-11,14-16,6c-9,5-18-5-11-13c-9-7-2-19,8-15C1.2-78,4.2-80,9.2-80
			z"/>
		<path class="st80" d="M0.2-61c6-4,12-4,18,1"/>
		<path class="st80" d="M1.2-53c7-4,11-2,15,3"/>
		<circle class="st81" cx="4.2" cy="-68" r="2"/>
		<circle class="st81" cx="14.2" cy="-66" r="2"/>
	</g>
	<text transform="matrix(1 0 0 1 58.7725 -67.1035)" class="st77 st25 st71">Direct protein-level</text>
	<text transform="matrix(1 0 0 1 208.8281 -67.1035)" class="st77 st25 st71"> </text>
	<text transform="matrix(1 0 0 1 58.7725 -42.1035)" class="st77 st25 st71">compartment assays</text>
</g>
</svg>
