<?xml version="1.0" encoding="utf-8" standalone="no"?>
<!DOCTYPE svg PUBLIC "-//W3C//DTD SVG 1.1//EN"
  "http://www.w3.org/Graphics/SVG/1.1/DTD/svg11.dtd">
<svg xmlns:xlink="http://www.w3.org/1999/xlink" width="518.4pt" height="424.8pt" viewBox="0 0 518.4 424.8" xmlns="http://www.w3.org/2000/svg" version="1.1">
 <metadata>
  <rdf:RDF xmlns:dc="http://purl.org/dc/elements/1.1/" xmlns:cc="http://creativecommons.org/ns#" xmlns:rdf="http://www.w3.org/1999/02/22-rdf-syntax-ns#">
   <cc:Work>
    <dc:type rdf:resource="http://purl.org/dc/dcmitype/StillImage"/>
    <dc:date>2026-06-26T12:49:22.293734</dc:date>
    <dc:format>image/svg+xml</dc:format>
    <dc:creator>
     <cc:Agent>
      <dc:title>Matplotlib v3.9.4, https://matplotlib.org/</dc:title>
     </cc:Agent>
    </dc:creator>
   </cc:Work>
  </rdf:RDF>
 </metadata>
 <defs>
  <style type="text/css">*{stroke-linejoin: round; stroke-linecap: butt}</style>
 </defs>
 <g id="figure_1">
  <g id="patch_1">
   <path d="M 0 424.8 
L 518.4 424.8 
L 518.4 0 
L 0 0 
z
" style="fill: #ffffff"/>
  </g>
  <g id="axes_1">
   <g id="patch_2">
    <path d="M 30.27456 123.74424 
L 111.35232 123.74424 
Q 117.075456 123.74424 117.075456 119.1564 
L 117.075456 71.3664 
Q 117.075456 66.77856 111.35232 66.77856 
L 30.27456 66.77856 
Q 24.551424 66.77856 24.551424 71.3664 
L 24.551424 119.1564 
Q 24.551424 123.74424 30.27456 123.74424 
z
" clip-path="url(#pf24cee87d2)" style="fill: #ffffff; stroke: #d9d9d9; stroke-width: 0.8; stroke-linejoin: miter"/>
   </g>
   <g id="patch_3">
    <path d="M 123.27552 123.74424 
L 204.35328 123.74424 
Q 210.076416 123.74424 210.076416 119.1564 
L 210.076416 71.3664 
Q 210.076416 66.77856 204.35328 66.77856 
L 123.27552 66.77856 
Q 117.552384 66.77856 117.552384 71.3664 
L 117.552384 119.1564 
Q 117.552384 123.74424 123.27552 123.74424 
z
" clip-path="url(#pf24cee87d2)" style="fill: #ffffff; stroke: #d9d9d9; stroke-width: 0.8; stroke-linejoin: miter"/>
   </g>
   <g id="patch_4">
    <path d="M 216.27648 123.74424 
L 297.35424 123.74424 
Q 303.077376 123.74424 303.077376 119.1564 
L 303.077376 71.3664 
Q 303.077376 66.77856 297.35424 66.77856 
L 216.27648 66.77856 
Q 210.553344 66.77856 210.553344 71.3664 
L 210.553344 119.1564 
Q 210.553344 123.74424 216.27648 123.74424 
z
" clip-path="url(#pf24cee87d2)" style="fill: #ffffff; stroke: #d9d9d9; stroke-width: 0.8; stroke-linejoin: miter"/>
   </g>
   <g id="patch_5">
    <path d="M 309.27744 123.74424 
L 390.3552 123.74424 
Q 396.078336 123.74424 396.078336 119.1564 
L 396.078336 71.3664 
Q 396.078336 66.77856 390.3552 66.77856 
L 309.27744 66.77856 
Q 303.554304 66.77856 303.554304 71.3664 
L 303.554304 119.1564 
Q 303.554304 123.74424 309.27744 123.74424 
z
" clip-path="url(#pf24cee87d2)" style="fill: #ffffff; stroke: #d9d9d9; stroke-width: 0.8; stroke-linejoin: miter"/>
   </g>
   <g id="patch_6">
    <path d="M 402.2784 123.74424 
L 483.35616 123.74424 
Q 489.079296 123.74424 489.079296 119.1564 
L 489.079296 71.3664 
Q 489.079296 66.77856 483.35616 66.77856 
L 402.2784 66.77856 
Q 396.555264 66.77856 396.555264 71.3664 
L 396.555264 119.1564 
Q 396.555264 123.74424 402.2784 123.74424 
z
" clip-path="url(#pf24cee87d2)" style="fill: #ffffff; stroke: #d9d9d9; stroke-width: 0.8; stroke-linejoin: miter"/>
   </g>
   <g id="patch_7">
    <path d="M 54.12096 236.52864 
L 206.73792 236.52864 
Q 212.461056 236.52864 212.461056 231.9408 
L 212.461056 178.416 
Q 212.461056 173.82816 206.73792 173.82816 
L 54.12096 173.82816 
Q 48.397824 173.82816 48.397824 178.416 
L 48.397824 231.9408 
Q 48.397824 236.52864 54.12096 236.52864 
z
" clip-path="url(#pf24cee87d2)" style="fill: #fdf4f8; stroke: #d84a8a; stroke-width: 0.8; stroke-linejoin: miter"/>
   </g>
   <g id="patch_8">
    <path d="M 311.66208 236.52864 
L 464.27904 236.52864 
Q 470.002176 236.52864 470.002176 231.9408 
L 470.002176 178.416 
Q 470.002176 173.82816 464.27904 173.82816 
L 311.66208 173.82816 
Q 305.938944 173.82816 305.938944 178.416 
L 305.938944 231.9408 
Q 305.938944 236.52864 311.66208 236.52864 
z
" clip-path="url(#pf24cee87d2)" style="fill: #f3f7fe; stroke: #3c78d8; stroke-width: 0.8; stroke-linejoin: miter"/>
   </g>
   <g id="patch_9">
    <path d="M 49.35168 335.93184 
L 125.66016 335.93184 
Q 131.383296 335.93184 131.383296 331.344 
L 131.383296 302.67 
Q 131.383296 298.08216 125.66016 298.08216 
L 49.35168 298.08216 
Q 43.628544 298.08216 43.628544 302.67 
L 43.628544 331.344 
Q 43.628544 335.93184 49.35168 335.93184 
z
" clip-path="url(#pf24cee87d2)" style="fill: #ffffff; stroke: #d9d9d9; stroke-width: 0.8; stroke-linejoin: miter"/>
   </g>
   <g id="patch_10">
    <path d="M 135.19872 335.93184 
L 211.5072 335.93184 
Q 217.230336 335.93184 217.230336 331.344 
L 217.230336 302.67 
Q 217.230336 298.08216 211.5072 298.08216 
L 135.19872 298.08216 
Q 129.475584 298.08216 129.475584 302.67 
L 129.475584 331.344 
Q 129.475584 335.93184 135.19872 335.93184 
z
" clip-path="url(#pf24cee87d2)" style="fill: #ffffff; stroke: #d9d9d9; stroke-width: 0.8; stroke-linejoin: miter"/>
   </g>
   <g id="patch_11">
    <path d="M 221.04576 335.93184 
L 297.35424 335.93184 
Q 303.077376 335.93184 303.077376 331.344 
L 303.077376 302.67 
Q 303.077376 298.08216 297.35424 298.08216 
L 221.04576 298.08216 
Q 215.322624 298.08216 215.322624 302.67 
L 215.322624 331.344 
Q 215.322624 335.93184 221.04576 335.93184 
z
" clip-path="url(#pf24cee87d2)" style="fill: #ffffff; stroke: #d9d9d9; stroke-width: 0.8; stroke-linejoin: miter"/>
   </g>
   <g id="patch_12">
    <path d="M 306.8928 335.93184 
L 383.20128 335.93184 
Q 388.924416 335.93184 388.924416 331.344 
L 388.924416 302.67 
Q 388.924416 298.08216 383.20128 298.08216 
L 306.8928 298.08216 
Q 301.169664 298.08216 301.169664 302.67 
L 301.169664 331.344 
Q 301.169664 335.93184 306.8928 335.93184 
z
" clip-path="url(#pf24cee87d2)" style="fill: #ffffff; stroke: #d9d9d9; stroke-width: 0.8; stroke-linejoin: miter"/>
   </g>
   <g id="patch_13">
    <path d="M 392.73984 335.93184 
L 469.04832 335.93184 
Q 474.771456 335.93184 474.771456 331.344 
L 474.771456 302.67 
Q 474.771456 298.08216 469.04832 298.08216 
L 392.73984 298.08216 
Q 387.016704 298.08216 387.016704 302.67 
L 387.016704 331.344 
Q 387.016704 335.93184 392.73984 335.93184 
z
" clip-path="url(#pf24cee87d2)" style="fill: #ffffff; stroke: #d9d9d9; stroke-width: 0.8; stroke-linejoin: miter"/>
   </g>
   <g id="text_1">
    <text style="fill: #333333; font: 700 11px 'Arial', 'Helvetica', 'DejaVu Sans', sans-serif; text-anchor: start" x="30.27456" y="57.9852" transform="rotate(-0 30.27456 57.9852)">A</text>
   </g>
   <g id="text_2">
    <text style="fill: #333333; font: 9px 'Arial', 'Helvetica', 'DejaVu Sans', sans-serif; text-anchor: start" x="46.96704" y="57.22056" transform="rotate(-0 46.96704 57.22056)">Public data layers</text>
   </g>
   <g id="text_3">
    <text style="fill: #333333; font: 700 6.3px 'Arial', 'Helvetica', 'DejaVu Sans', sans-serif; text-anchor: middle" x="70.81344" y="89.248078" transform="rotate(-0 70.81344 89.248078)">Public bulk RNA cohorts</text>
   </g>
   <g id="text_4">
    <text style="fill: #333333; font: 5.8px 'Arial', 'Helvetica', 'DejaVu Sans', sans-serif" transform="translate(58.885831 98.585441)">7 cohorts</text>
    <text style="fill: #333333; font: 5.8px 'Arial', 'Helvetica', 'DejaVu Sans', sans-serif" transform="translate(54.371799 104.407191)">660 samples</text>
    <text style="fill: #333333; font: 5.8px 'Arial', 'Helvetica', 'DejaVu Sans', sans-serif" transform="translate(48.569081 110.228941)">499 sepsis cases</text>
   </g>
   <g id="patch_14">
    <path d="M 113.352134 94.3056 
Q 117.313251 94.3056 120.268138 94.3056 
" style="fill: none; stroke: #8a8a8a; stroke-width: 0.9; stroke-linecap: round"/>
    <path d="M 117.468138 92.9056 
L 120.268138 94.3056 
L 117.468138 95.7056 
z
" style="fill: #8a8a8a; stroke: #8a8a8a; stroke-width: 0.9; stroke-linecap: round"/>
   </g>
   <g id="text_5">
    <text style="fill: #333333; font: 700 6.3px 'Arial', 'Helvetica', 'DejaVu Sans', sans-serif; text-anchor: middle" x="163.8144" y="89.245125" transform="rotate(-0 163.8144 89.245125)">Case-only immune spectrum</text>
   </g>
   <g id="text_6">
    <text style="fill: #333333; font: 5.8px 'Arial', 'Helvetica', 'DejaVu Sans', sans-serif" transform="translate(128.998087 98.535724)">499 complete sepsis cases</text>
    <text style="fill: #333333; font: 5.8px 'Arial', 'Helvetica', 'DejaVu Sans', sans-serif" transform="translate(138.503744 104.338189)">continuous gradient</text>
    <text style="fill: #333333; font: 5.8px 'Arial', 'Helvetica', 'DejaVu Sans', sans-serif" transform="translate(130.688697 110.227908)">descriptive k = 3 grouping</text>
   </g>
   <g id="patch_15">
    <path d="M 206.353094 94.3056 
Q 210.314211 94.3056 213.269098 94.3056 
" style="fill: none; stroke: #8a8a8a; stroke-width: 0.9; stroke-linecap: round"/>
    <path d="M 210.469098 92.9056 
L 213.269098 94.3056 
L 210.469098 95.7056 
z
" style="fill: #8a8a8a; stroke: #8a8a8a; stroke-width: 0.9; stroke-linecap: round"/>
   </g>
   <g id="text_7">
    <text style="fill: #333333; font: 700 6.3px 'Arial', 'Helvetica', 'DejaVu Sans', sans-serif; text-anchor: middle" x="256.81536" y="89.245125" transform="rotate(-0 256.81536 89.245125)">COMBAT paired RNA-CyTOF</text>
   </g>
   <g id="text_8">
    <text style="fill: #333333; font: 5.8px 'Arial', 'Helvetica', 'DejaVu Sans', sans-serif" transform="translate(233.121454 98.551456)">129 matched rows</text>
    <text style="fill: #333333; font: 5.8px 'Arial', 'Helvetica', 'DejaVu Sans', sans-serif" transform="translate(231.351094 104.373206)">40 sepsis-only rows</text>
    <text style="fill: #333333; font: 5.8px 'Arial', 'Helvetica', 'DejaVu Sans', sans-serif" transform="translate(237.955391 110.262925)">34 participants</text>
   </g>
   <g id="patch_16">
    <path d="M 299.354054 94.3056 
Q 303.315171 94.3056 306.270058 94.3056 
" style="fill: none; stroke: #8a8a8a; stroke-width: 0.9; stroke-linecap: round"/>
    <path d="M 303.470058 92.9056 
L 306.270058 94.3056 
L 303.470058 95.7056 
z
" style="fill: #8a8a8a; stroke: #8a8a8a; stroke-width: 0.9; stroke-linecap: round"/>
   </g>
   <g id="text_9">
    <text style="fill: #333333; font: 700 6.3px 'Arial', 'Helvetica', 'DejaVu Sans', sans-serif; text-anchor: middle" x="349.81632" y="89.245125" transform="rotate(-0 349.81632 89.245125)">Raw-FCS sensitivity</text>
   </g>
   <g id="text_10">
    <text style="fill: #333333; font: 5.8px 'Arial', 'Helvetica', 'DejaVu Sans', sans-serif" transform="translate(318.709742 98.613335)">40 matched sepsis rows</text>
    <text style="fill: #333333; font: 5.8px 'Arial', 'Helvetica', 'DejaVu Sans', sans-serif" transform="translate(321.131242 104.4158)">all-pair marker context</text>
    <text style="fill: #333333; font: 5.8px 'Arial', 'Helvetica', 'DejaVu Sans', sans-serif" transform="translate(322.094133 110.218265)">matched control pairs</text>
   </g>
   <g id="patch_17">
    <path d="M 392.355014 94.3056 
Q 396.316131 94.3056 399.271018 94.3056 
" style="fill: none; stroke: #8a8a8a; stroke-width: 0.9; stroke-linecap: round"/>
    <path d="M 396.471018 92.9056 
L 399.271018 94.3056 
L 396.471018 95.7056 
z
" style="fill: #8a8a8a; stroke: #8a8a8a; stroke-width: 0.9; stroke-linecap: round"/>
   </g>
   <g id="text_11">
    <text style="fill: #333333; font: 700 6.3px 'Arial', 'Helvetica', 'DejaVu Sans', sans-serif; text-anchor: middle" x="442.81728" y="89.245125" transform="rotate(-0 442.81728 89.245125)">Single-cell and pathway context</text>
   </g>
   <g id="text_12">
    <text style="fill: #333333; font: 5.8px 'Arial', 'Helvetica', 'DejaVu Sans', sans-serif" transform="translate(397.739499 98.528474)">donor-level monocyte/MNP context</text>
    <text style="fill: #333333; font: 5.8px 'Arial', 'Helvetica', 'DejaVu Sans', sans-serif" transform="translate(407.194405 104.398908)">ranked pathway enrichment</text>
    <text style="fill: #333333; font: 5.8px 'Arial', 'Helvetica', 'DejaVu Sans', sans-serif" transform="translate(407.031733 110.288626)">exploratory Death28 anchor</text>
   </g>
   <g id="text_13">
    <text style="fill: #333333; font: 700 11px 'Arial', 'Helvetica', 'DejaVu Sans', sans-serif; text-anchor: start" x="30.27456" y="159.3" transform="rotate(-0 30.27456 159.3)">B</text>
   </g>
   <g id="text_14">
    <text style="fill: #333333; font: 9px 'Arial', 'Helvetica', 'DejaVu Sans', sans-serif; text-anchor: start" x="46.96704" y="158.53536" transform="rotate(-0 46.96704 158.53536)">Core biological contrast</text>
   </g>
   <g id="text_15">
    <text style="fill: #d84a8a; font: 700 7.4px 'Arial', 'Helvetica', 'DejaVu Sans', sans-serif; text-anchor: middle" x="130.42944" y="198.529182" transform="rotate(-0 130.42944 198.529182)">Inflammatory / host-response high</text>
   </g>
   <g id="text_16">
    <text style="fill: #333333; font: 6.4px 'Arial', 'Helvetica', 'DejaVu Sans', sans-serif" transform="translate(86.49694 208.875468)">six-gene host-response anchor</text>
    <text style="fill: #333333; font: 6.4px 'Arial', 'Helvetica', 'DejaVu Sans', sans-serif" transform="translate(78.85444 215.440548)">S100 / myeloid inflammatory context</text>
    <text style="fill: #333333; font: 6.4px 'Arial', 'Helvetica', 'DejaVu Sans', sans-serif" transform="translate(95.93144 221.918268)">immunometabolic stress</text>
   </g>
   <g id="text_17">
    <text style="fill: #3c78d8; font: 700 7.4px 'Arial', 'Helvetica', 'DejaVu Sans', sans-serif; text-anchor: middle" x="387.97056" y="198.484088" transform="rotate(-0 387.97056 198.484088)">Antigen-presentation low</text>
   </g>
   <g id="text_18">
    <text style="fill: #333333; font: 6.4px 'Arial', 'Helvetica', 'DejaVu Sans', sans-serif" transform="translate(366.99156 208.950468)">MHC-II / CD74</text>
    <text style="fill: #333333; font: 6.4px 'Arial', 'Helvetica', 'DejaVu Sans', sans-serif" transform="translate(368.94456 215.353188)">HLA-DR core</text>
    <text style="fill: #333333; font: 6.4px 'Arial', 'Helvetica', 'DejaVu Sans', sans-serif" transform="translate(341.95906 221.843268)">adaptive / T-cell context reduced</text>
   </g>
   <g id="patch_18">
    <path d="M 213.507014 205.1784 
Q 259.201014 205.1784 303.77698 205.1784 
" style="fill: none; stroke: #2a9d8f; stroke-linecap: round"/>
    <path d="M 300.97698 203.7784 
L 303.77698 205.1784 
L 300.97698 206.5784 
z
" style="fill: #2a9d8f; stroke: #2a9d8f; stroke-linecap: round"/>
   </g>
   <g id="text_19">
    <text style="fill: #333333; font: 700 8.4px 'Arial', 'Helvetica', 'DejaVu Sans', sans-serif; text-anchor: middle" x="259.2" y="170.913263" transform="rotate(-0 259.2 170.913263)">Recurrent inflammatory/MHC-II decoupling</text>
   </g>
   <g id="text_20">
    <text style="fill: #333333; font: 7px 'Arial', 'Helvetica', 'DejaVu Sans', sans-serif; text-anchor: middle" x="259.2" y="246.598956" transform="rotate(-0 259.2 246.598956)">Recovered across public RNA cohorts and linked to paired COMBAT RNA-CyTOF data</text>
   </g>
   <g id="text_21">
    <text style="fill: #333333; font: 700 11px 'Arial', 'Helvetica', 'DejaVu Sans', sans-serif; text-anchor: start" x="30.27456" y="281.6424" transform="rotate(-0 30.27456 281.6424)">C</text>
   </g>
   <g id="text_22">
    <text style="fill: #333333; font: 9px 'Arial', 'Helvetica', 'DejaVu Sans', sans-serif; text-anchor: start" x="46.96704" y="280.87776" transform="rotate(-0 46.96704 280.87776)">Discovery sequence</text>
   </g>
   <g id="text_23">
    <text style="fill: #333333; font: 700 7.2px 'Arial', 'Helvetica', 'DejaVu Sans', sans-serif" transform="translate(64.905233 310.482922)">Cross-cohort</text>
    <text style="fill: #333333; font: 700 7.2px 'Arial', 'Helvetica', 'DejaVu Sans', sans-serif" transform="translate(60.230295 318.088147)">RNA recurrence</text>
   </g>
   <g id="patch_19">
    <path d="M 127.658228 317.19816 
Q 130.428843 317.19816 132.193228 317.19816 
" style="fill: none; stroke: #8a8a8a; stroke-width: 0.9; stroke-linecap: round"/>
    <path d="M 129.393228 315.79816 
L 132.193228 317.19816 
L 129.393228 318.59816 
z
" style="fill: #8a8a8a; stroke: #8a8a8a; stroke-width: 0.9; stroke-linecap: round"/>
   </g>
   <g id="text_24">
    <text style="fill: #333333; font: 700 7.2px 'Arial', 'Helvetica', 'DejaVu Sans', sans-serif" transform="translate(153.35946 310.435673)">Continuous</text>
    <text style="fill: #333333; font: 700 7.2px 'Arial', 'Helvetica', 'DejaVu Sans', sans-serif" transform="translate(139.54221 318.040898)">case-only spectrum</text>
   </g>
   <g id="patch_20">
    <path d="M 213.505268 317.19816 
Q 216.275883 317.19816 218.040268 317.19816 
" style="fill: none; stroke: #8a8a8a; stroke-width: 0.9; stroke-linecap: round"/>
    <path d="M 215.240268 315.79816 
L 218.040268 317.19816 
L 215.240268 318.59816 
z
" style="fill: #8a8a8a; stroke: #8a8a8a; stroke-width: 0.9; stroke-linecap: round"/>
   </g>
   <g id="text_25">
    <text style="fill: #333333; font: 700 7.2px 'Arial', 'Helvetica', 'DejaVu Sans', sans-serif" transform="translate(231.662813 310.482922)">Paired COMBAT</text>
    <text style="fill: #333333; font: 700 7.2px 'Arial', 'Helvetica', 'DejaVu Sans', sans-serif" transform="translate(239.394938 318.088147)">association</text>
   </g>
   <g id="patch_21">
    <path d="M 299.352307 317.19816 
Q 302.122923 317.19816 303.887308 317.19816 
" style="fill: none; stroke: #8a8a8a; stroke-width: 0.9; stroke-linecap: round"/>
    <path d="M 301.087308 315.79816 
L 303.887308 317.19816 
L 301.087308 318.59816 
z
" style="fill: #8a8a8a; stroke: #8a8a8a; stroke-width: 0.9; stroke-linecap: round"/>
   </g>
   <g id="text_26">
    <text style="fill: #333333; font: 700 7.2px 'Arial', 'Helvetica', 'DejaVu Sans', sans-serif" transform="translate(308.436165 310.526797)">Raw-FCS marker-pair</text>
    <text style="fill: #333333; font: 700 7.2px 'Arial', 'Helvetica', 'DejaVu Sans', sans-serif" transform="translate(326.643728 318.132023)">refinement</text>
   </g>
   <g id="patch_22">
    <path d="M 385.199348 317.19816 
Q 387.969963 317.19816 389.734348 317.19816 
" style="fill: none; stroke: #8a8a8a; stroke-width: 0.9; stroke-linecap: round"/>
    <path d="M 386.934348 315.79816 
L 389.734348 317.19816 
L 386.934348 318.59816 
z
" style="fill: #8a8a8a; stroke: #8a8a8a; stroke-width: 0.9; stroke-linecap: round"/>
   </g>
   <g id="text_27">
    <text style="fill: #333333; font: 700 7.2px 'Arial', 'Helvetica', 'DejaVu Sans', sans-serif" transform="translate(410.290268 310.435673)">Cellular and</text>
    <text style="fill: #333333; font: 700 7.2px 'Arial', 'Helvetica', 'DejaVu Sans', sans-serif" transform="translate(402.690893 318.040898)">pathway context</text>
   </g>
   <g id="text_28">
    <text style="fill: #333333; font: 7px 'Arial', 'Helvetica', 'DejaVu Sans', sans-serif; text-anchor: middle" x="259.2" y="365.65245" transform="rotate(-0 259.2 365.65245)">Working interpretation: inflammatory/MHC-II decoupling is associated with a representative cytometry-derived immune-state summary in paired sepsis samples.</text>
   </g>
  </g>
  <g id="text_29">
   <text style="fill: #333333; font: 700 9.2px 'Arial', 'Helvetica', 'DejaVu Sans', sans-serif; text-anchor: middle" x="259.2" y="12.9845" transform="rotate(-0 259.2 12.9845)">Figure 1. Public multi-layer study design and discovery sequence.</text>
  </g>
 </g>
 <defs>
  <clipPath id="pf24cee87d2">
   <rect x="20.736" y="25.488" width="476.928" height="382.32"/>
  </clipPath>
 </defs>
</svg>
