<svg xmlns="http://www.w3.org/2000/svg" width="180mm" height="155mm" viewBox="0 0 1800 1550" role="img" aria-label="Study architecture and claim-boundary map">
<defs>
  <linearGradient id="gradDecouple" x1="0%" y1="0%" x2="100%" y2="0%">
    <stop offset="0%" stop-color="#276FDB"/>
    <stop offset="50%" stop-color="#7B6FD6"/>
    <stop offset="100%" stop-color="#E84A8A"/>
  </linearGradient>
  <linearGradient id="gradStatement" x1="0%" y1="0%" x2="100%" y2="100%">
    <stop offset="0%" stop-color="#E8FAF7"/>
    <stop offset="100%" stop-color="#DFF2FF"/>
  </linearGradient>
</defs>
<rect x="0" y="0" width="1800" height="1550" rx="0" fill="#F7FAFE" stroke="none" stroke-width="0" />
<rect x="28" y="28" width="1744" height="1494" rx="28" fill="none" stroke="#E1EAF4" stroke-width="2.2" />
<text x="82" y="116" font-family="Arial, Helvetica, Liberation Sans, Noto Sans, sans-serif" font-size="42" font-weight="800" fill="#182033" text-anchor="start" >
<tspan x="82" dy="0">Study architecture and claim-boundary map</tspan>
</text>
<text x="82" y="158" font-family="Arial, Helvetica, Liberation Sans, Noto Sans, sans-serif" font-size="30" font-weight="500" fill="#516078" text-anchor="start" >
<tspan x="82" dy="0">Association and sensitivity evidence; no causal or predictive modeling.</tspan>
</text>
<text x="68" y="205" font-family="Arial, Helvetica, Liberation Sans, Noto Sans, sans-serif" font-size="36" font-weight="900" fill="#0B1F4D" text-anchor="start" >
<tspan x="68" dy="0">A</tspan>
</text>
<text x="108" y="205" font-family="Arial, Helvetica, Liberation Sans, Noto Sans, sans-serif" font-size="30" font-weight="850" fill="#0B1F4D" text-anchor="start" >
<tspan x="108" dy="0">Evidence hierarchy</tspan>
</text>
<rect x="82" y="242" width="296" height="556" rx="24" fill="#D8E2EF" stroke="none" stroke-width="0" opacity="0.35" />
<rect x="75" y="232" width="310" height="560" rx="24" fill="#FFFFFF" stroke="#DDE5EF" stroke-width="2.2" />
<rect x="75" y="232" width="310" height="16" rx="8" fill="#E84A8A" stroke="none" stroke-width="0" opacity="0.96" />
<circle cx="113" cy="280" r="24" fill="#FDEAF2" stroke="#E84A8A" stroke-width="2.8" />
<text x="113" y="290" font-family="Arial, Helvetica, Liberation Sans, Noto Sans, sans-serif" font-size="30" font-weight="800" fill="#E84A8A" text-anchor="middle" >
<tspan x="113" dy="0">1</tspan>
</text>
<text x="151" y="304" font-family="Arial, Helvetica, Liberation Sans, Noto Sans, sans-serif" font-size="30" font-weight="800" fill="#0B1F4D" text-anchor="start" >
<tspan x="151" dy="0">Public bulk</tspan>
<tspan x="151" dy="34">RNA recurrence</tspan>
</text>
<rect x="140.84" y="405.28" width="57.4" height="14.76" rx="5.739999999999999" fill="#0B1F4D" stroke="none" stroke-width="0" />
<path d="M149.86,420.04 L156.42,479.08 Q169.54,490.56 182.66,479.08 L188.4,420.04 Z" fill="#FFFFFF" stroke="#0B1F4D" stroke-width="2.46" stroke-linecap="round" stroke-linejoin="round" />
<path d="M156.42,465.14 Q169.54,456.12 182.66,465.14 L181.01999999999998,477.44 Q169.54,484.82 158.06,477.44 Z" fill="#FDEAF2" stroke="none" stroke-width="0" stroke-linecap="round" stroke-linejoin="round" />
<polyline points="207.26,430.7 217.92000000000002,422.5 228.57999999999998,438.9 239.24,430.7 249.89999999999998,447.1" fill="none" stroke="#E84A8A" stroke-width="3.28" stroke-linecap="round" stroke-linejoin="round" />
<rect x="207.26" y="459.4" width="9.02" height="6.56" rx="1.64" fill="#FDEAF2" stroke="none" stroke-width="0" opacity="0.9" />
<rect x="220.38" y="459.4" width="9.02" height="6.56" rx="1.64" fill="#E84A8A" stroke="none" stroke-width="0" opacity="0.9" />
<rect x="233.5" y="459.4" width="9.02" height="6.56" rx="1.64" fill="#0B1F4D" stroke="none" stroke-width="0" opacity="0.9" />
<rect x="246.62" y="459.4" width="9.02" height="6.56" rx="1.64" fill="#EAF0FB" stroke="none" stroke-width="0" opacity="0.9" />
<rect x="207.26" y="470.06" width="9.02" height="6.56" rx="1.64" fill="#E84A8A" stroke="none" stroke-width="0" opacity="0.9" />
<rect x="220.38" y="470.06" width="9.02" height="6.56" rx="1.64" fill="#0B1F4D" stroke="none" stroke-width="0" opacity="0.9" />
<rect x="233.5" y="470.06" width="9.02" height="6.56" rx="1.64" fill="#EAF0FB" stroke="none" stroke-width="0" opacity="0.9" />
<rect x="246.62" y="470.06" width="9.02" height="6.56" rx="1.64" fill="#FDEAF2" stroke="none" stroke-width="0" opacity="0.9" />
<rect x="207.26" y="480.72" width="9.02" height="6.56" rx="1.64" fill="#0B1F4D" stroke="none" stroke-width="0" opacity="0.9" />
<rect x="220.38" y="480.72" width="9.02" height="6.56" rx="1.64" fill="#EAF0FB" stroke="none" stroke-width="0" opacity="0.9" />
<rect x="233.5" y="480.72" width="9.02" height="6.56" rx="1.64" fill="#FDEAF2" stroke="none" stroke-width="0" opacity="0.9" />
<rect x="246.62" y="480.72" width="9.02" height="6.56" rx="1.64" fill="#E84A8A" stroke="none" stroke-width="0" opacity="0.9" />
<rect x="103" y="532" width="254" height="2.5" rx="1.5" fill="#E84A8A" stroke="none" stroke-width="0" opacity="0.9" />
<circle cx="121" cy="570" r="5" fill="#E84A8A" stroke="none" stroke-width="0" opacity="0.82" />
<text x="138" y="577" font-family="Arial, Helvetica, Liberation Sans, Noto Sans, sans-serif" font-size="28.5" font-weight="650" fill="#182033" text-anchor="start" >
<tspan x="138" dy="0">7 public cohorts</tspan>
</text>
<circle cx="121" cy="609" r="5" fill="#E84A8A" stroke="none" stroke-width="0" opacity="0.82" />
<text x="138" y="616" font-family="Arial, Helvetica, Liberation Sans, Noto Sans, sans-serif" font-size="28.5" font-weight="650" fill="#182033" text-anchor="start" >
<tspan x="138" dy="0">660 samples;</tspan>
<tspan x="138" dy="31">499 sepsis</tspan>
</text>
<circle cx="121" cy="679" r="5" fill="#E84A8A" stroke="none" stroke-width="0" opacity="0.82" />
<text x="138" y="686" font-family="Arial, Helvetica, Liberation Sans, Noto Sans, sans-serif" font-size="28.5" font-weight="650" fill="#182033" text-anchor="start" >
<tspan x="138" dy="0">MHC-II/CD74 and</tspan>
<tspan x="138" dy="31">HLA-DR inverse</tspan>
<tspan x="138" dy="31">coupling</tspan>
</text>
<line x1="393" y1="422" x2="397" y2="422" stroke="#B9C6D6" stroke-width="3.2" stroke-linecap="round" stroke-dasharray="10 9"/>
<circle cx="395.0" cy="422" r="7" fill="#FFFFFF" stroke="#B9C6D6" stroke-width="2.5" />
<rect x="412" y="242" width="296" height="556" rx="24" fill="#D8E2EF" stroke="none" stroke-width="0" opacity="0.35" />
<rect x="405" y="232" width="310" height="560" rx="24" fill="#FFFFFF" stroke="#DDE5EF" stroke-width="2.2" />
<rect x="405" y="232" width="310" height="16" rx="8" fill="#7B6FD6" stroke="none" stroke-width="0" opacity="0.96" />
<circle cx="443" cy="280" r="24" fill="#F0EEFC" stroke="#7B6FD6" stroke-width="2.8" />
<text x="443" y="290" font-family="Arial, Helvetica, Liberation Sans, Noto Sans, sans-serif" font-size="30" font-weight="800" fill="#7B6FD6" text-anchor="middle" >
<tspan x="443" dy="0">2</tspan>
</text>
<text x="481" y="304" font-family="Arial, Helvetica, Liberation Sans, Noto Sans, sans-serif" font-size="30" font-weight="800" fill="#0B1F4D" text-anchor="start" >
<tspan x="481" dy="0">Case-only</tspan>
<tspan x="481" dy="34">immune</tspan>
<tspan x="481" dy="34">spectrum</tspan>
</text>
<rect x="464.28" y="431.52" width="139.4" height="27.88" rx="13.94" fill="url(#gradDecouple)" stroke="none" stroke-width="0" />
<line x1="510.2" y1="429.88" x2="510.2" y2="462.68" stroke="#FFFFFF" stroke-width="2.05" stroke-linecap="round" stroke-dasharray="5 7" opacity="0.85"/>
<line x1="556.12" y1="429.88" x2="556.12" y2="462.68" stroke="#FFFFFF" stroke-width="2.05" stroke-linecap="round" stroke-dasharray="5 7" opacity="0.85"/>
<circle cx="480.68" cy="439.72" r="5.739999999999999" fill="#FFFFFF" stroke="#276FDB" stroke-width="2.46" />
<circle cx="501.18" cy="445.46" r="4.1" fill="#FFFFFF" stroke="#0B1F4D" stroke-width="2.46" />
<circle cx="533.16" cy="445.46" r="5.739999999999999" fill="#FFFFFF" stroke="#7B6FD6" stroke-width="2.46" />
<circle cx="570.88" cy="451.2" r="4.92" fill="#FFFFFF" stroke="#E84A8A" stroke-width="2.46" />
<circle cx="590.56" cy="451.2" r="6.56" fill="#FFFFFF" stroke="#D9435E" stroke-width="2.46" />
<rect x="433" y="532" width="254" height="2.5" rx="1.5" fill="#7B6FD6" stroke="none" stroke-width="0" opacity="0.9" />
<circle cx="451" cy="570" r="5" fill="#7B6FD6" stroke="none" stroke-width="0" opacity="0.82" />
<text x="468" y="577" font-family="Arial, Helvetica, Liberation Sans, Noto Sans, sans-serif" font-size="28.5" font-weight="650" fill="#182033" text-anchor="start" >
<tspan x="468" dy="0">499 complete</tspan>
<tspan x="468" dy="31">sepsis cases</tspan>
</text>
<circle cx="451" cy="640" r="5" fill="#7B6FD6" stroke="none" stroke-width="0" opacity="0.82" />
<text x="468" y="647" font-family="Arial, Helvetica, Liberation Sans, Noto Sans, sans-serif" font-size="28.5" font-weight="650" fill="#182033" text-anchor="start" >
<tspan x="468" dy="0">Continuous</tspan>
<tspan x="468" dy="31">gradient</tspan>
</text>
<circle cx="451" cy="710" r="5" fill="#7B6FD6" stroke="none" stroke-width="0" opacity="0.82" />
<text x="468" y="717" font-family="Arial, Helvetica, Liberation Sans, Noto Sans, sans-serif" font-size="28.5" font-weight="650" fill="#182033" text-anchor="start" >
<tspan x="468" dy="0">k=3 descriptive;</tspan>
<tspan x="468" dy="31">221 cases</tspan>
</text>
<line x1="723" y1="422" x2="727" y2="422" stroke="#B9C6D6" stroke-width="3.2" stroke-linecap="round" stroke-dasharray="10 9"/>
<circle cx="725.0" cy="422" r="7" fill="#FFFFFF" stroke="#B9C6D6" stroke-width="2.5" />
<rect x="742" y="242" width="296" height="556" rx="24" fill="#D8E2EF" stroke="none" stroke-width="0" opacity="0.35" />
<rect x="735" y="232" width="310" height="560" rx="24" fill="#FFFFFF" stroke="#DDE5EF" stroke-width="2.2" />
<rect x="735" y="232" width="310" height="16" rx="8" fill="#276FDB" stroke="none" stroke-width="0" opacity="0.96" />
<circle cx="773" cy="280" r="24" fill="#EAF1FE" stroke="#276FDB" stroke-width="2.8" />
<text x="773" y="290" font-family="Arial, Helvetica, Liberation Sans, Noto Sans, sans-serif" font-size="30" font-weight="800" fill="#276FDB" text-anchor="middle" >
<tspan x="773" dy="0">3</tspan>
</text>
<text x="811" y="304" font-family="Arial, Helvetica, Liberation Sans, Noto Sans, sans-serif" font-size="30" font-weight="800" fill="#0B1F4D" text-anchor="start" >
<tspan x="811" dy="0">Representative</tspan>
<tspan x="811" dy="34">residual</tspan>
<tspan x="811" dy="34">co-event signal</tspan>
</text>
<rect x="802.48" y="410.2" width="102.5" height="84.46" rx="11.479999999999999" fill="#FFFFFF" stroke="#276FDB" stroke-width="2.46" />
<line x1="818.88" y1="477.44" x2="886.12" y2="477.44" stroke="#0B1F4D" stroke-width="2.46" stroke-linecap="round"/>
<line x1="818.88" y1="477.44" x2="818.88" y2="425.78" stroke="#0B1F4D" stroke-width="2.46" stroke-linecap="round"/>
<circle cx="833.64" cy="462.68" r="4.1" fill="#276FDB" stroke="none" stroke-width="0" opacity="0.78" />
<circle cx="847.58" cy="452.02" r="3.28" fill="#276FDB" stroke="none" stroke-width="0" opacity="0.78" />
<circle cx="859.88" cy="442.18" r="4.1" fill="#E84A8A" stroke="none" stroke-width="0" opacity="0.78" />
<circle cx="872.18" cy="433.15999999999997" r="3.28" fill="#E84A8A" stroke="none" stroke-width="0" opacity="0.78" />
<circle cx="876.28" cy="461.04" r="3.28" fill="#7B6FD6" stroke="none" stroke-width="0" opacity="0.78" />
<circle cx="842.66" cy="433.98" r="2.46" fill="#7B6FD6" stroke="none" stroke-width="0" opacity="0.78" />
<path d="M895.14,452.84 L916.46,461.04 L916.46,484.0 Q905.8,496.3 895.14,500.4 Q884.48,496.3 873.8199999999999,484.0 L873.8199999999999,461.04 Z" fill="#E6F8F6" stroke="#00A99D" stroke-width="2.46" stroke-linecap="round" stroke-linejoin="round" />
<path d="M883.66,475.8 L891.86,484.82 L908.26,467.6" fill="none" stroke="#00A99D" stroke-width="3.28" stroke-linecap="round" stroke-linejoin="round" />
<rect x="763" y="532" width="254" height="2.5" rx="1.5" fill="#276FDB" stroke="none" stroke-width="0" opacity="0.9" />
<circle cx="781" cy="570" r="5" fill="#276FDB" stroke="none" stroke-width="0" opacity="0.82" />
<text x="798" y="577" font-family="Arial, Helvetica, Liberation Sans, Noto Sans, sans-serif" font-size="28.5" font-weight="650" fill="#182033" text-anchor="start" >
<tspan x="798" dy="0">Prespecified</tspan>
<tspan x="798" dy="31">pair readout</tspan>
</text>
<circle cx="781" cy="640" r="5" fill="#276FDB" stroke="none" stroke-width="0" opacity="0.82" />
<text x="798" y="647" font-family="Arial, Helvetica, Liberation Sans, Noto Sans, sans-serif" font-size="28.5" font-weight="650" fill="#182033" text-anchor="start" >
<tspan x="798" dy="0">Frequency vs</tspan>
<tspan x="798" dy="31">marker state</tspan>
</text>
<circle cx="781" cy="710" r="5" fill="#276FDB" stroke="none" stroke-width="0" opacity="0.82" />
<text x="798" y="717" font-family="Arial, Helvetica, Liberation Sans, Noto Sans, sans-serif" font-size="28.5" font-weight="650" fill="#182033" text-anchor="start" >
<tspan x="798" dy="0">Pair specificity</tspan>
<tspan x="798" dy="31">unresolved</tspan>
</text>
<line x1="1053" y1="422" x2="1057" y2="422" stroke="#B9C6D6" stroke-width="3.2" stroke-linecap="round" stroke-dasharray="10 9"/>
<circle cx="1055.0" cy="422" r="7" fill="#FFFFFF" stroke="#B9C6D6" stroke-width="2.5" />
<rect x="1072" y="242" width="296" height="556" rx="24" fill="#D8E2EF" stroke="none" stroke-width="0" opacity="0.35" />
<rect x="1065" y="232" width="310" height="560" rx="24" fill="#FFFFFF" stroke="#DDE5EF" stroke-width="2.2" />
<rect x="1065" y="232" width="310" height="16" rx="8" fill="#00A99D" stroke="none" stroke-width="0" opacity="0.96" />
<circle cx="1103" cy="280" r="24" fill="#E6F8F6" stroke="#00A99D" stroke-width="2.8" />
<text x="1103" y="290" font-family="Arial, Helvetica, Liberation Sans, Noto Sans, sans-serif" font-size="30" font-weight="800" fill="#00A99D" text-anchor="middle" >
<tspan x="1103" dy="0">4</tspan>
</text>
<text x="1141" y="304" font-family="Arial, Helvetica, Liberation Sans, Noto Sans, sans-serif" font-size="30" font-weight="800" fill="#0B1F4D" text-anchor="start" >
<tspan x="1141" dy="0">Paired COMBAT</tspan>
<tspan x="1141" dy="34">RNA-CyTOF</tspan>
<tspan x="1141" dy="34">bridge</tspan>
</text>
<circle cx="1156.26" cy="449.56" r="27.88" fill="#FDEAF2" stroke="#E84A8A" stroke-width="2.46" />
<circle cx="1249.74" cy="449.56" r="27.88" fill="#EAF1FE" stroke="#276FDB" stroke-width="2.46" />
<rect x="1189.88" y="438.9" width="21.32" height="11.479999999999999" rx="5.739999999999999" fill="#FFFFFF" stroke="#0B1F4D" stroke-width="2.05" />
<rect x="1203.82" y="448.74" width="21.32" height="11.479999999999999" rx="5.739999999999999" fill="#FFFFFF" stroke="#0B1F4D" stroke-width="2.05" />
<rect x="1217.76" y="438.9" width="21.32" height="11.479999999999999" rx="5.739999999999999" fill="#FFFFFF" stroke="#0B1F4D" stroke-width="2.05" />
<line x1="1183.32" y1="449.56" x2="1222.68" y2="449.56" stroke="#B9C6D6" stroke-width="2.46" stroke-linecap="round" stroke-dasharray="6 8"/>
<rect x="1093" y="532" width="254" height="2.5" rx="1.5" fill="#00A99D" stroke="none" stroke-width="0" opacity="0.9" />
<circle cx="1111" cy="570" r="5" fill="#00A99D" stroke="none" stroke-width="0" opacity="0.82" />
<text x="1128" y="577" font-family="Arial, Helvetica, Liberation Sans, Noto Sans, sans-serif" font-size="28.5" font-weight="650" fill="#182033" text-anchor="start" >
<tspan x="1128" dy="0">129 matched rows</tspan>
</text>
<circle cx="1111" cy="609" r="5" fill="#00A99D" stroke="none" stroke-width="0" opacity="0.82" />
<text x="1128" y="616" font-family="Arial, Helvetica, Liberation Sans, Noto Sans, sans-serif" font-size="28.5" font-weight="650" fill="#182033" text-anchor="start" >
<tspan x="1128" dy="0">40 sepsis-only</tspan>
<tspan x="1128" dy="31">rows</tspan>
</text>
<circle cx="1111" cy="679" r="5" fill="#00A99D" stroke="none" stroke-width="0" opacity="0.82" />
<text x="1128" y="686" font-family="Arial, Helvetica, Liberation Sans, Noto Sans, sans-serif" font-size="28.5" font-weight="650" fill="#182033" text-anchor="start" >
<tspan x="1128" dy="0">34 participants</tspan>
</text>
<line x1="1383" y1="422" x2="1387" y2="422" stroke="#B9C6D6" stroke-width="3.2" stroke-linecap="round" stroke-dasharray="10 9"/>
<circle cx="1385.0" cy="422" r="7" fill="#FFFFFF" stroke="#B9C6D6" stroke-width="2.5" />
<rect x="1402" y="242" width="296" height="556" rx="24" fill="#D8E2EF" stroke="none" stroke-width="0" opacity="0.35" />
<rect x="1395" y="232" width="310" height="560" rx="24" fill="#FFFFFF" stroke="#DDE5EF" stroke-width="2.2" />
<rect x="1395" y="232" width="310" height="16" rx="8" fill="#7B6FD6" stroke="none" stroke-width="0" opacity="0.96" />
<circle cx="1433" cy="280" r="24" fill="#F0EEFC" stroke="#7B6FD6" stroke-width="2.8" />
<text x="1433" y="290" font-family="Arial, Helvetica, Liberation Sans, Noto Sans, sans-serif" font-size="30" font-weight="800" fill="#7B6FD6" text-anchor="middle" >
<tspan x="1433" dy="0">5</tspan>
</text>
<text x="1471" y="304" font-family="Arial, Helvetica, Liberation Sans, Noto Sans, sans-serif" font-size="30" font-weight="800" fill="#0B1F4D" text-anchor="start" >
<tspan x="1471" dy="0">Context /</tspan>
<tspan x="1471" dy="34">exploratory</tspan>
<tspan x="1471" dy="34">anchor</tspan>
</text>
<circle cx="1475.6" cy="446.28" r="15.579999999999998" fill="#7B6FD6" stroke="none" stroke-width="0" opacity="0.82" />
<circle cx="1475.6" cy="446.28" r="4.51" fill="#FFFFFF" stroke="none" stroke-width="0" opacity="0.9" />
<circle cx="1501.84" cy="430.7" r="12.299999999999999" fill="#276FDB" stroke="none" stroke-width="0" opacity="0.82" />
<circle cx="1501.84" cy="430.7" r="4.51" fill="#FFFFFF" stroke="none" stroke-width="0" opacity="0.9" />
<circle cx="1508.4" cy="462.68" r="14.76" fill="#00A99D" stroke="none" stroke-width="0" opacity="0.82" />
<circle cx="1508.4" cy="462.68" r="4.51" fill="#FFFFFF" stroke="none" stroke-width="0" opacity="0.9" />
<circle cx="1533.82" cy="445.46" r="13.94" fill="#E84A8A" stroke="none" stroke-width="0" opacity="0.82" />
<circle cx="1533.82" cy="445.46" r="4.51" fill="#FFFFFF" stroke="none" stroke-width="0" opacity="0.9" />
<rect x="1553.5" y="420.04" width="38.54" height="54.12" rx="5.739999999999999" fill="#FFFFFF" stroke="#0B1F4D" stroke-width="2.46" />
<rect x="1563.34" y="413.48" width="18.86" height="12.299999999999999" rx="4.1" fill="#F0EEFC" stroke="#7B6FD6" stroke-width="1.64" />
<line x1="1563.34" y1="438.08" x2="1582.2" y2="438.08" stroke="#B9C6D6" stroke-width="2.05" stroke-linecap="round"/>
<line x1="1563.34" y1="450.38" x2="1582.2" y2="450.38" stroke="#B9C6D6" stroke-width="2.05" stroke-linecap="round"/>
<circle cx="1573.18" cy="485.64" r="13.12" fill="#FFFFFF" stroke="#D9435E" stroke-width="2.46" />
<line x1="1573.18" y1="485.64" x2="1579.74" y2="477.44" stroke="#D9435E" stroke-width="2.46" stroke-linecap="round"/>
<line x1="1573.18" y1="485.64" x2="1566.62" y2="490.56" stroke="#D9435E" stroke-width="2.05" stroke-linecap="round"/>
<rect x="1423" y="532" width="254" height="2.5" rx="1.5" fill="#7B6FD6" stroke="none" stroke-width="0" opacity="0.9" />
<circle cx="1441" cy="570" r="5" fill="#7B6FD6" stroke="none" stroke-width="0" opacity="0.82" />
<text x="1458" y="577" font-family="Arial, Helvetica, Liberation Sans, Noto Sans, sans-serif" font-size="28.5" font-weight="650" fill="#182033" text-anchor="start" >
<tspan x="1458" dy="0">Donor-level</tspan>
<tspan x="1458" dy="31">single-cell</tspan>
<tspan x="1458" dy="31">context</tspan>
</text>
<circle cx="1441" cy="671" r="5" fill="#7B6FD6" stroke="none" stroke-width="0" opacity="0.82" />
<text x="1458" y="678" font-family="Arial, Helvetica, Liberation Sans, Noto Sans, sans-serif" font-size="28.5" font-weight="650" fill="#182033" text-anchor="start" >
<tspan x="1458" dy="0">Death28</tspan>
<tspan x="1458" dy="31">exploratory anchor</tspan>
</text>
<circle cx="1441" cy="741" r="5" fill="#7B6FD6" stroke="none" stroke-width="0" opacity="0.82" />
<text x="1458" y="748" font-family="Arial, Helvetica, Liberation Sans, Noto Sans, sans-serif" font-size="28.5" font-weight="650" fill="#182033" text-anchor="start" >
<tspan x="1458" dy="0">40 rows; 11 events;</tspan>
<tspan x="1458" dy="31">exploratory only</tspan>
</text>
<text x="68" y="855" font-family="Arial, Helvetica, Liberation Sans, Noto Sans, sans-serif" font-size="36" font-weight="900" fill="#00A99D" text-anchor="start" >
<tspan x="68" dy="0">B</tspan>
</text>
<text x="108" y="855" font-family="Arial, Helvetica, Liberation Sans, Noto Sans, sans-serif" font-size="30" font-weight="850" fill="#0B1F4D" text-anchor="start" >
<tspan x="108" dy="0">Locked interpretation</tspan>
</text>
<rect x="228" y="890" width="1344" height="216" rx="30" fill="#CDE6ED" stroke="none" stroke-width="0" opacity="0.4" />
<rect x="220" y="880" width="1360" height="220" rx="30" fill="url(#gradStatement)" stroke="#00A99D" stroke-width="3.5" />
<path d="M284.2,950.1 V939.3 Q284.2,922.2 302.2,922.2 Q320.2,922.2 320.2,939.3 V950.1" fill="none" stroke="#00A99D" stroke-width="3.6" stroke-linecap="round" stroke-linejoin="round" />
<rect x="276.1" y="948.3" width="52.2" height="43.2" rx="10.8" fill="#FFFFFF" stroke="#00A99D" stroke-width="3.6" />
<circle cx="302.2" cy="969.0" r="4.5" fill="#00A99D" stroke="none" stroke-width="0" />
<line x1="302.2" y1="972.6" x2="302.2" y2="981.6" stroke="#00A99D" stroke-width="3.6" stroke-linecap="round"/>
<text x="900.0" y="932" font-family="Arial, Helvetica, Liberation Sans, Noto Sans, sans-serif" font-size="30" font-weight="850" fill="#0B1F4D" text-anchor="middle" >
<tspan x="900.0" dy="0">Inflammatory/MHC-II decoupling is associated with</tspan>
<tspan x="900.0" dy="36">a representative residual co-event signal</tspan>
<tspan x="900.0" dy="36">within a broader marker-pair background</tspan>
</text>
<text x="900.0" y="1068" font-family="Arial, Helvetica, Liberation Sans, Noto Sans, sans-serif" font-size="29" font-weight="650" fill="#00A99D" text-anchor="middle" >
<tspan x="900.0" dy="0">Association-only, artifact-aware, non-predictive interpretation</tspan>
</text>
<line x1="390" y1="904" x2="1410" y2="904" stroke="#00A99D" stroke-width="2.2" stroke-linecap="round" stroke-dasharray="8 10" opacity="0.65"/>
<text x="68" y="1175" font-family="Arial, Helvetica, Liberation Sans, Noto Sans, sans-serif" font-size="36" font-weight="900" fill="#D9435E" text-anchor="start" >
<tspan x="68" dy="0">C</tspan>
</text>
<text x="108" y="1175" font-family="Arial, Helvetica, Liberation Sans, Noto Sans, sans-serif" font-size="30" font-weight="850" fill="#0B1F4D" text-anchor="start" >
<tspan x="108" dy="0">Claim boundaries</tspan>
</text>
<rect x="128" y="1205" width="1544" height="306" rx="26" fill="#EED5DC" stroke="none" stroke-width="0" opacity="0.35" />
<rect x="120" y="1195" width="1560" height="310" rx="26" fill="#FFFFFF" stroke="#D9435E" stroke-width="3.3" />
<rect x="120" y="1195" width="1560" height="18" rx="9" fill="#D9435E" stroke="none" stroke-width="0" opacity="0.94" />
<line x1="900.0" y1="1229" x2="900.0" y2="1479" stroke="#E5B1BC" stroke-width="2.8" stroke-linecap="round" stroke-dasharray="9 8"/>
<rect x="162" y="1241" width="252" height="38" rx="19" fill="#E6F8F6" stroke="#00A99D" stroke-width="2.2" />
<text x="288" y="1267" font-family="Arial, Helvetica, Liberation Sans, Noto Sans, sans-serif" font-size="30" font-weight="850" fill="#00A99D" text-anchor="middle" >
<tspan x="288" dy="0">Allowed</tspan>
</text>
<rect x="942.0" y="1241" width="252" height="38" rx="19" fill="#FCEBF0" stroke="#D9435E" stroke-width="2.2" />
<text x="1068.0" y="1267" font-family="Arial, Helvetica, Liberation Sans, Noto Sans, sans-serif" font-size="30" font-weight="850" fill="#D9435E" text-anchor="middle" >
<tspan x="1068.0" dy="0">Excluded</tspan>
</text>
<circle cx="192" cy="1314" r="10" fill="#E6F8F6" stroke="#00A99D" stroke-width="2.5" />
<path d="M187,1314 L191,1319 L199,1308" fill="none" stroke="#00A99D" stroke-width="2.8" stroke-linecap="round" stroke-linejoin="round" />
<text x="214" y="1321" font-family="Arial, Helvetica, Liberation Sans, Noto Sans, sans-serif" font-size="28.5" font-weight="650" fill="#182033" text-anchor="start" >
<tspan x="214" dy="0">Cross-cohort</tspan>
<tspan x="214" dy="35.1">recurrence</tspan>
</text>
<circle cx="534" cy="1314" r="10" fill="#E6F8F6" stroke="#00A99D" stroke-width="2.5" />
<path d="M529,1314 L533,1319 L541,1308" fill="none" stroke="#00A99D" stroke-width="2.8" stroke-linecap="round" stroke-linejoin="round" />
<text x="556" y="1321" font-family="Arial, Helvetica, Liberation Sans, Noto Sans, sans-serif" font-size="28.5" font-weight="650" fill="#182033" text-anchor="start" >
<tspan x="556" dy="0">Paired RNA-CyTOF</tspan>
<tspan x="556" dy="35.1">bridge</tspan>
</text>
<circle cx="192" cy="1404" r="10" fill="#E6F8F6" stroke="#00A99D" stroke-width="2.5" />
<path d="M187,1404 L191,1409 L199,1398" fill="none" stroke="#00A99D" stroke-width="2.8" stroke-linecap="round" stroke-linejoin="round" />
<text x="214" y="1411" font-family="Arial, Helvetica, Liberation Sans, Noto Sans, sans-serif" font-size="28.5" font-weight="650" fill="#182033" text-anchor="start" >
<tspan x="214" dy="0">Marker-state</tspan>
<tspan x="214" dy="35.1">heterogeneity</tspan>
</text>
<circle cx="534" cy="1404" r="10" fill="#E6F8F6" stroke="#00A99D" stroke-width="2.5" />
<path d="M529,1404 L533,1409 L541,1398" fill="none" stroke="#00A99D" stroke-width="2.8" stroke-linecap="round" stroke-linejoin="round" />
<text x="556" y="1411" font-family="Arial, Helvetica, Liberation Sans, Noto Sans, sans-serif" font-size="28.5" font-weight="650" fill="#182033" text-anchor="start" >
<tspan x="556" dy="0">Computational</tspan>
<tspan x="556" dy="35.1">sensitivity</tspan>
</text>
<circle cx="972.0" cy="1300" r="10" fill="#FCEBF0" stroke="#D9435E" stroke-width="2.5" />
<line x1="967.0" y1="1295" x2="977.0" y2="1305" stroke="#D9435E" stroke-width="2.8" stroke-linecap="round"/>
<line x1="977.0" y1="1295" x2="967.0" y2="1305" stroke="#D9435E" stroke-width="2.8" stroke-linecap="round"/>
<text x="994.0" y="1307" font-family="Arial, Helvetica, Liberation Sans, Noto Sans, sans-serif" font-size="28.5" font-weight="650" fill="#182033" text-anchor="start" >
<tspan x="994.0" dy="0">Causal</tspan>
<tspan x="994.0" dy="35.1">mechanism</tspan>
</text>
<circle cx="1314.0" cy="1300" r="10" fill="#FCEBF0" stroke="#D9435E" stroke-width="2.5" />
<line x1="1309.0" y1="1295" x2="1319.0" y2="1305" stroke="#D9435E" stroke-width="2.8" stroke-linecap="round"/>
<line x1="1319.0" y1="1295" x2="1309.0" y2="1305" stroke="#D9435E" stroke-width="2.8" stroke-linecap="round"/>
<text x="1336.0" y="1307" font-family="Arial, Helvetica, Liberation Sans, Noto Sans, sans-serif" font-size="28.5" font-weight="650" fill="#182033" text-anchor="start" >
<tspan x="1336.0" dy="0">Physical CD3/CD14</tspan>
<tspan x="1336.0" dy="35.1">complex</tspan>
</text>
<circle cx="972.0" cy="1372" r="10" fill="#FCEBF0" stroke="#D9435E" stroke-width="2.5" />
<line x1="967.0" y1="1367" x2="977.0" y2="1377" stroke="#D9435E" stroke-width="2.8" stroke-linecap="round"/>
<line x1="977.0" y1="1367" x2="967.0" y2="1377" stroke="#D9435E" stroke-width="2.8" stroke-linecap="round"/>
<text x="994.0" y="1379" font-family="Arial, Helvetica, Liberation Sans, Noto Sans, sans-serif" font-size="28.5" font-weight="650" fill="#182033" text-anchor="start" >
<tspan x="994.0" dy="0">Validated</tspan>
<tspan x="994.0" dy="35.1">endotype</tspan>
</text>
<circle cx="1314.0" cy="1372" r="10" fill="#FCEBF0" stroke="#D9435E" stroke-width="2.5" />
<line x1="1309.0" y1="1367" x2="1319.0" y2="1377" stroke="#D9435E" stroke-width="2.8" stroke-linecap="round"/>
<line x1="1319.0" y1="1367" x2="1309.0" y2="1377" stroke="#D9435E" stroke-width="2.8" stroke-linecap="round"/>
<text x="1336.0" y="1379" font-family="Arial, Helvetica, Liberation Sans, Noto Sans, sans-serif" font-size="28.5" font-weight="650" fill="#182033" text-anchor="start" >
<tspan x="1336.0" dy="0">Clinical prediction</tspan>
<tspan x="1336.0" dy="35.1">model</tspan>
</text>
<circle cx="972.0" cy="1444" r="10" fill="#FCEBF0" stroke="#D9435E" stroke-width="2.5" />
<line x1="967.0" y1="1439" x2="977.0" y2="1449" stroke="#D9435E" stroke-width="2.8" stroke-linecap="round"/>
<line x1="977.0" y1="1439" x2="967.0" y2="1449" stroke="#D9435E" stroke-width="2.8" stroke-linecap="round"/>
<text x="994.0" y="1451" font-family="Arial, Helvetica, Liberation Sans, Noto Sans, sans-serif" font-size="28.5" font-weight="650" fill="#182033" text-anchor="start" >
<tspan x="994.0" dy="0">Therapeutic</tspan>
<tspan x="994.0" dy="35.1">recommendation</tspan>
</text>
</svg>