<?xml version="1.0" encoding="utf-8"?>
<!-- Generator: Adobe Illustrator 28.1.0, SVG Export Plug-In . SVG Version: 6.00 Build 0)  -->
<svg version="1.1" id="图层_1" xmlns="http://www.w3.org/2000/svg" xmlns:xlink="http://www.w3.org/1999/xlink" x="0px" y="0px"
	 viewBox="0 0 510.2 439.4" style="enable-background:new 0 0 510.2 439.4;" xml:space="preserve">
<style type="text/css">
	.st0{fill:#F7FAFE;}
	.st1{fill:none;stroke:#E1EAF4;stroke-width:0.6236;stroke-miterlimit:1.1339;}
	.st2{enable-background:new    ;}
	.st3{fill:#182033;}
	.st4{font-family:'AdobeSongStd-Light-GBpc-EUC-H';}
	.st5{font-size:11.9055px;}
	.st6{font-family:'NotoSansArmenian-ExtraBold';}
	.st7{fill:#516078;}
	.st8{font-size:8.5039px;}
	.st9{font-family:'NotoSansArmenian-Medium';}
	.st10{fill:#0B1F4D;}
	.st11{font-family:'Arial-Black';}
	.st12{font-size:10.2047px;}
	.st13{font-family:'ArialMT';}
	.st14{opacity:0.35;fill:#D8E2EF;enable-background:new    ;}
	.st15{fill:#FFFFFF;stroke:#DDE5EF;stroke-width:0.6236;stroke-miterlimit:1.1339;}
	.st16{opacity:0.96;fill:#E84A8A;enable-background:new    ;}
	.st17{fill:#FDEAF2;stroke:#E84A8A;stroke-width:0.7937;stroke-miterlimit:1.1339;}
	.st18{fill:#E84A8A;}
	.st19{fill:#FFFFFF;stroke:#0B1F4D;stroke-width:0.6973;stroke-linecap:round;stroke-linejoin:round;stroke-miterlimit:1.1339;}
	.st20{fill:#FDEAF2;}
	.st21{fill:none;stroke:#E84A8A;stroke-width:0.9298;stroke-linecap:round;stroke-linejoin:round;stroke-miterlimit:1.1339;}
	.st22{opacity:0.9;fill:#FDEAF2;enable-background:new    ;}
	.st23{opacity:0.9;fill:#E84A8A;enable-background:new    ;}
	.st24{opacity:0.9;fill:#0B1F4D;enable-background:new    ;}
	.st25{opacity:0.9;fill:#EAF0FB;enable-background:new    ;}
	.st26{opacity:0.82;fill:#E84A8A;enable-background:new    ;}
	.st27{font-size:8.0787px;}
	
		.st28{fill:none;stroke:#B9C6D6;stroke-width:0.9071;stroke-linecap:round;stroke-miterlimit:1.1339;stroke-dasharray:2.8346,2.5512;}
	.st29{fill:#FFFFFF;stroke:#B9C6D6;stroke-width:0.7087;stroke-miterlimit:1.1339;}
	.st30{opacity:0.96;fill:#7B6FD6;enable-background:new    ;}
	.st31{fill:#F0EEFC;stroke:#7B6FD6;stroke-width:0.7937;stroke-miterlimit:1.1339;}
	.st32{fill:#7B6FD6;}
	.st33{fill:url(#SVGID_1_);}
	
		.st34{opacity:0.85;fill:none;stroke:#FFFFFF;stroke-width:0.5811;stroke-linecap:round;stroke-miterlimit:1.1339;stroke-dasharray:1.4173,1.9843;enable-background:new    ;}
	.st35{fill:#FFFFFF;stroke:#276FDB;stroke-width:0.6973;stroke-miterlimit:1.1339;}
	.st36{fill:#FFFFFF;stroke:#0B1F4D;stroke-width:0.6973;stroke-miterlimit:1.1339;}
	.st37{fill:#FFFFFF;stroke:#7B6FD6;stroke-width:0.6973;stroke-miterlimit:1.1339;}
	.st38{fill:#FFFFFF;stroke:#E84A8A;stroke-width:0.6973;stroke-miterlimit:1.1339;}
	.st39{fill:#FFFFFF;stroke:#D9435E;stroke-width:0.6973;stroke-miterlimit:1.1339;}
	.st40{opacity:0.9;fill:#7B6FD6;enable-background:new    ;}
	.st41{opacity:0.82;fill:#7B6FD6;enable-background:new    ;}
	.st42{opacity:0.96;fill:#276FDB;enable-background:new    ;}
	.st43{fill:#EAF1FE;stroke:#276FDB;stroke-width:0.7937;stroke-miterlimit:1.1339;}
	.st44{fill:#276FDB;}
	.st45{fill:none;stroke:#0B1F4D;stroke-width:0.6973;stroke-linecap:round;stroke-miterlimit:1.1339;}
	.st46{opacity:0.78;fill:#276FDB;enable-background:new    ;}
	.st47{opacity:0.78;fill:#E84A8A;enable-background:new    ;}
	.st48{opacity:0.78;fill:#7B6FD6;enable-background:new    ;}
	.st49{fill:#E6F8F6;stroke:#00A99D;stroke-width:0.6973;stroke-linecap:round;stroke-linejoin:round;stroke-miterlimit:1.1339;}
	.st50{fill:none;stroke:#00A99D;stroke-width:0.9298;stroke-linecap:round;stroke-linejoin:round;stroke-miterlimit:1.1339;}
	.st51{opacity:0.9;fill:#276FDB;enable-background:new    ;}
	.st52{opacity:0.82;fill:#276FDB;enable-background:new    ;}
	.st53{opacity:0.96;fill:#00A99D;enable-background:new    ;}
	.st54{fill:#E6F8F6;stroke:#00A99D;stroke-width:0.7937;stroke-miterlimit:1.1339;}
	.st55{fill:#00A99D;}
	.st56{fill:#FDEAF2;stroke:#E84A8A;stroke-width:0.6973;stroke-miterlimit:1.1339;}
	.st57{fill:#EAF1FE;stroke:#276FDB;stroke-width:0.6973;stroke-miterlimit:1.1339;}
	.st58{fill:#FFFFFF;stroke:#0B1F4D;stroke-width:0.5811;stroke-miterlimit:1.1339;}
	
		.st59{fill:none;stroke:#B9C6D6;stroke-width:0.6973;stroke-linecap:round;stroke-miterlimit:1.1339;stroke-dasharray:1.7008,2.2677;}
	.st60{opacity:0.9;fill:#00A99D;enable-background:new    ;}
	.st61{opacity:0.82;fill:#00A99D;enable-background:new    ;}
	.st62{opacity:0.9;fill:#FFFFFF;enable-background:new    ;}
	.st63{fill:#F0EEFC;stroke:#7B6FD6;stroke-width:0.4649;stroke-miterlimit:1.1339;}
	.st64{fill:none;stroke:#B9C6D6;stroke-width:0.5811;stroke-linecap:round;stroke-miterlimit:1.1339;}
	.st65{fill:none;stroke:#D9435E;stroke-width:0.6973;stroke-linecap:round;stroke-miterlimit:1.1339;}
	.st66{fill:none;stroke:#D9435E;stroke-width:0.5811;stroke-linecap:round;stroke-miterlimit:1.1339;}
	.st67{opacity:0.4;fill:#CDE6ED;enable-background:new    ;}
	
		.st68{fill:url(#SVGID_00000132077950177231279090000009404816046196471471_);stroke:#00A99D;stroke-width:0.9921;stroke-miterlimit:1.1339;}
	.st69{fill:none;stroke:#00A99D;stroke-width:1.0205;stroke-linecap:round;stroke-linejoin:round;stroke-miterlimit:1.1339;}
	.st70{fill:#FFFFFF;stroke:#00A99D;stroke-width:1.0205;stroke-miterlimit:1.1339;}
	.st71{fill:none;stroke:#00A99D;stroke-width:1.0205;stroke-linecap:round;stroke-miterlimit:1.1339;}
	.st72{font-size:8.2205px;}
	.st73{fill:#D9435E;}
	.st74{opacity:0.35;fill:#EED5DC;enable-background:new    ;}
	.st75{fill:#FFFFFF;stroke:#D9435E;stroke-width:0.9354;stroke-miterlimit:1.1339;}
	.st76{opacity:0.94;fill:#D9435E;enable-background:new    ;}
	
		.st77{fill:none;stroke:#E5B1BC;stroke-width:0.7937;stroke-linecap:round;stroke-miterlimit:1.1339;stroke-dasharray:2.5512,2.2677;}
	.st78{fill:#E6F8F6;stroke:#00A99D;stroke-width:0.6236;stroke-miterlimit:1.1339;}
	.st79{fill:#FCEBF0;stroke:#D9435E;stroke-width:0.6236;stroke-miterlimit:1.1339;}
	.st80{fill:#E6F8F6;stroke:#00A99D;stroke-width:0.7087;stroke-miterlimit:1.1339;}
	.st81{fill:none;stroke:#00A99D;stroke-width:0.7937;stroke-linecap:round;stroke-linejoin:round;stroke-miterlimit:1.1339;}
	.st82{fill:#FCEBF0;stroke:#D9435E;stroke-width:0.7087;stroke-miterlimit:1.1339;}
	.st83{fill:none;stroke:#D9435E;stroke-width:0.7937;stroke-linecap:round;stroke-miterlimit:1.1339;}
</style>
<rect y="0" class="st0" width="510.2" height="439.4"/>
<path class="st1" d="M15.9,7.9h478.5c4.4,0,7.9,3.6,7.9,7.9v407.6c0,4.4-3.6,7.9-7.9,7.9H15.9c-4.4,0-7.9-3.6-7.9-7.9V15.9
	C7.9,11.5,11.5,7.9,15.9,7.9z"/>
<text transform="matrix(1 0 0 1 23.2441 32.8818)" class="st2"><tspan x="0" y="0" class="st3 st4 st5">Study</tspan><tspan x="26.7" y="0" class="st3 st6 st5"> </tspan><tspan x="29.8" y="0" class="st3 st4 st5">architecture</tspan><tspan x="84.6" y="0" class="st3 st6 st5"> </tspan><tspan x="87.7" y="0" class="st3 st4 st5">and</tspan><tspan x="105.2" y="0" class="st3 st6 st5"> </tspan><tspan x="108.3" y="0" class="st3 st4 st5">claim</tspan><tspan x="133.4" y="0" class="st3 st6 st5">-</tspan><tspan x="137.2" y="0" class="st3 st4 st5">boundary</tspan><tspan x="182.5" y="0" class="st3 st6 st5"> </tspan><tspan x="185.6" y="0" class="st3 st4 st5">map</tspan></text>
<text transform="matrix(1 0 0 1 23.2441 44.7876)" class="st2"><tspan x="0" y="0" class="st7 st4 st8">Association</tspan><tspan x="38.6" y="0" class="st7 st9 st8"> </tspan><tspan x="40.8" y="0" class="st7 st4 st8">and</tspan><tspan x="53.3" y="0" class="st7 st9 st8"> </tspan><tspan x="55.5" y="0" class="st7 st4 st8">sensitivity</tspan><tspan x="87.8" y="0" class="st7 st9 st8"> </tspan><tspan x="90" y="0" class="st7 st4 st8">evidence;</tspan><tspan x="121.1" y="0" class="st7 st9 st8"> </tspan><tspan x="123.3" y="0" class="st7 st4 st8">no</tspan><tspan x="132.2" y="0" class="st7 st9 st8"> </tspan><tspan x="134.4" y="0" class="st7 st4 st8">causal</tspan><tspan x="154.3" y="0" class="st7 st9 st8"> </tspan><tspan x="156.6" y="0" class="st7 st4 st8">or</tspan><tspan x="163.9" y="0" class="st7 st9 st8"> </tspan><tspan x="166.1" y="0" class="st7 st4 st8">predictive</tspan><tspan x="198.9" y="0" class="st7 st9 st8"> </tspan><tspan x="201.1" y="0" class="st7 st4 st8">modeling.</tspan></text>
<text transform="matrix(1 0 0 1 19.2754 58.1104)" class="st10 st11 st12">A</text>
<text transform="matrix(1 0 0 1 30.6143 58.1104)" class="st10 st13 st8">Evidence hierarchy</text>
<path class="st14" d="M30,68.6h70.3c3.8,0,6.8,3,6.8,6.8v144c0,3.8-3,6.8-6.8,6.8H30c-3.8,0-6.8-3-6.8-6.8v-144
	C23.2,71.6,26.3,68.6,30,68.6z"/>
<path class="st15" d="M28.1,65.8h74.3c3.8,0,6.8,3,6.8,6.8v145.1c0,3.8-3,6.8-6.8,6.8H28.1c-3.8,0-6.8-3-6.8-6.8V72.6
	C21.3,68.8,24.3,65.8,28.1,65.8z"/>
<path class="st16" d="M23.5,65.8h83.3c1.3,0,2.3,1,2.3,2.3l0,0c0,1.3-1,2.3-2.3,2.3H23.5c-1.3,0-2.3-1-2.3-2.3l0,0
	C21.3,66.8,22.3,65.8,23.5,65.8z"/>
<circle class="st17" cx="32" cy="79.4" r="6.8"/>
<text transform="matrix(1 0 0 1 29.5527 82.2046)" class="st18 st4 st8">1</text>
<text transform="matrix(1 0 0 1 42.8032 86.1733)" class="st2"><tspan x="0" y="0" class="st10 st4 st8">Public</tspan><tspan x="20.9" y="0" class="st10 st6 st8"> </tspan><tspan x="23.1" y="0" class="st10 st4 st8">bulk</tspan></text>
<text transform="matrix(1 0 0 1 42.8032 95.811)" class="st2"><tspan x="0" y="0" class="st10 st4 st8">RNA</tspan><tspan x="17.6" y="0" class="st10 st6 st8"> </tspan><tspan x="19.8" y="0" class="st10 st4 st8">recurrence</tspan></text>
<path class="st10" d="M41.6,114.9h13c0.9,0,1.6,0.7,1.6,1.6v0.9c0,0.9-0.7,1.6-1.6,1.6h-13c-0.9,0-1.6-0.7-1.6-1.6v-0.9
	C39.9,115.6,40.7,114.9,41.6,114.9z"/>
<path class="st19" d="M42.5,119.1l1.9,16.7c2.5,2.2,5,2.2,7.4,0l1.6-16.7H42.5z"/>
<path class="st20" d="M44.3,131.9c2.5-1.7,5-1.7,7.4,0l-0.5,3.5c-2.2,1.4-4.3,1.4-6.5,0L44.3,131.9z"/>
<polyline class="st21" points="58.8,122.1 61.8,119.8 64.8,124.4 67.8,122.1 70.8,126.7 "/>
<path class="st22" d="M59.2,130.2h1.6c0.3,0,0.5,0.2,0.5,0.5v0.9c0,0.3-0.2,0.5-0.5,0.5h-1.6c-0.3,0-0.5-0.2-0.5-0.5v-0.9
	C58.8,130.4,59,130.2,59.2,130.2z"/>
<path class="st23" d="M62.9,130.2h1.6c0.3,0,0.5,0.2,0.5,0.5v0.9c0,0.3-0.2,0.5-0.5,0.5h-1.6c-0.3,0-0.5-0.2-0.5-0.5v-0.9
	C62.5,130.4,62.7,130.2,62.9,130.2z"/>
<path class="st24" d="M66.7,130.2h1.6c0.3,0,0.5,0.2,0.5,0.5v0.9c0,0.3-0.2,0.5-0.5,0.5h-1.6c-0.3,0-0.5-0.2-0.5-0.5v-0.9
	C66.2,130.4,66.4,130.2,66.7,130.2z"/>
<path class="st25" d="M70.4,130.2H72c0.3,0,0.5,0.2,0.5,0.5v0.9c0,0.3-0.2,0.5-0.5,0.5h-1.6c-0.3,0-0.5-0.2-0.5-0.5v-0.9
	C69.9,130.4,70.1,130.2,70.4,130.2z"/>
<path class="st23" d="M59.2,133.2h1.6c0.3,0,0.5,0.2,0.5,0.5v0.9c0,0.3-0.2,0.5-0.5,0.5h-1.6c-0.3,0-0.5-0.2-0.5-0.5v-0.9
	C58.8,133.5,59,133.2,59.2,133.2z"/>
<path class="st24" d="M62.9,133.2h1.6c0.3,0,0.5,0.2,0.5,0.5v0.9c0,0.3-0.2,0.5-0.5,0.5h-1.6c-0.3,0-0.5-0.2-0.5-0.5v-0.9
	C62.5,133.5,62.7,133.2,62.9,133.2z"/>
<path class="st25" d="M66.7,133.2h1.6c0.3,0,0.5,0.2,0.5,0.5v0.9c0,0.3-0.2,0.5-0.5,0.5h-1.6c-0.3,0-0.5-0.2-0.5-0.5v-0.9
	C66.2,133.5,66.4,133.2,66.7,133.2z"/>
<path class="st22" d="M70.4,133.2H72c0.3,0,0.5,0.2,0.5,0.5v0.9c0,0.3-0.2,0.5-0.5,0.5h-1.6c-0.3,0-0.5-0.2-0.5-0.5v-0.9
	C69.9,133.5,70.1,133.2,70.4,133.2z"/>
<path class="st24" d="M59.2,136.3h1.6c0.3,0,0.5,0.2,0.5,0.5v0.9c0,0.3-0.2,0.5-0.5,0.5h-1.6c-0.3,0-0.5-0.2-0.5-0.5v-0.9
	C58.8,136.5,59,136.3,59.2,136.3z"/>
<path class="st25" d="M62.9,136.3h1.6c0.3,0,0.5,0.2,0.5,0.5v0.9c0,0.3-0.2,0.5-0.5,0.5h-1.6c-0.3,0-0.5-0.2-0.5-0.5v-0.9
	C62.5,136.5,62.7,136.3,62.9,136.3z"/>
<path class="st22" d="M66.7,136.3h1.6c0.3,0,0.5,0.2,0.5,0.5v0.9c0,0.3-0.2,0.5-0.5,0.5h-1.6c-0.3,0-0.5-0.2-0.5-0.5v-0.9
	C66.2,136.5,66.4,136.3,66.7,136.3z"/>
<path class="st23" d="M70.4,136.3H72c0.3,0,0.5,0.2,0.5,0.5v0.9c0,0.3-0.2,0.5-0.5,0.5h-1.6c-0.3,0-0.5-0.2-0.5-0.5v-0.9
	C69.9,136.5,70.1,136.3,70.4,136.3z"/>
<path class="st23" d="M29.6,150.8h71.1c0.2,0,0.4,0.2,0.4,0.4l0,0c0,0.2-0.2,0.4-0.4,0.4H29.6c-0.2,0-0.4-0.2-0.4-0.4l0,0
	C29.2,151,29.4,150.8,29.6,150.8z"/>
<circle class="st26" cx="34.3" cy="161.6" r="1.4"/>
<text transform="matrix(1 0 0 1 39.1182 163.5591)" class="st3 st13 st27">7 public cohorts</text>
<circle class="st26" cx="34.3" cy="172.6" r="1.4"/>
<text transform="matrix(1 0 0 1 39.1182 174.6143)" class="st3 st13 st27">660 samples;</text>
<text transform="matrix(1 0 0 1 39.1182 183.4014)" class="st3 st13 st27">499 sepsis</text>
<circle class="st26" cx="34.3" cy="192.5" r="1.4"/>
<text transform="matrix(1 0 0 1 39.1182 194.4565)" class="st3 st13 st27">MHC-II/CD74 and</text>
<text transform="matrix(1 0 0 1 39.1182 203.2441)" class="st3 st13 st27">HLA-DR inverse</text>
<text transform="matrix(1 0 0 1 39.1182 212.0312)" class="st3 st13 st27">coupling</text>
<line class="st28" x1="111.4" y1="119.6" x2="112.5" y2="119.6"/>
<circle class="st29" cx="112" cy="119.6" r="2"/>
<path class="st14" d="M123.6,68.6h70.3c3.8,0,6.8,3,6.8,6.8v144c0,3.8-3,6.8-6.8,6.8h-70.3c-3.8,0-6.8-3-6.8-6.8v-144
	C116.8,71.6,119.8,68.6,123.6,68.6z"/>
<path class="st15" d="M121.6,65.8h74.3c3.8,0,6.8,3,6.8,6.8v145.1c0,3.8-3,6.8-6.8,6.8h-74.3c-3.8,0-6.8-3-6.8-6.8V72.6
	C114.8,68.8,117.8,65.8,121.6,65.8z"/>
<path class="st30" d="M117.1,65.8h83.3c1.3,0,2.3,1,2.3,2.3l0,0c0,1.3-1,2.3-2.3,2.3h-83.3c-1.3,0-2.3-1-2.3-2.3l0,0
	C114.8,66.8,115.8,65.8,117.1,65.8z"/>
<circle class="st31" cx="125.6" cy="79.4" r="6.8"/>
<text transform="matrix(1 0 0 1 123.0957 82.2046)" class="st32 st4 st8">2</text>
<text transform="matrix(1 0 0 1 136.3467 86.1733)" class="st2"><tspan x="0" y="0" class="st10 st4 st8">Case</tspan><tspan x="15.8" y="0" class="st10 st6 st8">-</tspan><tspan x="18.6" y="0" class="st10 st4 st8">only</tspan></text>
<text transform="matrix(1 0 0 1 136.3467 95.811)" class="st10 st4 st8">immune</text>
<text transform="matrix(1 0 0 1 136.3467 105.4487)" class="st10 st4 st8">spectrum</text>
<linearGradient id="SVGID_1_" gradientUnits="userSpaceOnUse" x1="-686.184" y1="720.1356" x2="-685.184" y2="720.1356" gradientTransform="matrix(39.515 0 0 -7.903 27246.1367 5817.4971)">
	<stop  offset="0" style="stop-color:#276FDB"/>
	<stop  offset="0.5" style="stop-color:#7B6FD6"/>
	<stop  offset="1" style="stop-color:#E84A8A"/>
</linearGradient>
<path class="st33" d="M135.6,122.3h31.6c2.2,0,4,1.8,4,4l0,0c0,2.2-1.8,4-4,4h-31.6c-2.2,0-4-1.8-4-4l0,0
	C131.6,124.1,133.4,122.3,135.6,122.3z"/>
<line class="st34" x1="144.6" y1="121.9" x2="144.6" y2="131.2"/>
<line class="st34" x1="157.6" y1="121.9" x2="157.6" y2="131.2"/>
<circle class="st35" cx="136.3" cy="124.6" r="1.6"/>
<circle class="st36" cx="142.1" cy="126.3" r="1.2"/>
<circle class="st37" cx="151.1" cy="126.3" r="1.6"/>
<circle class="st38" cx="161.8" cy="127.9" r="1.4"/>
<circle class="st39" cx="167.4" cy="127.9" r="1.9"/>
<path class="st40" d="M123.2,150.8h71.1c0.2,0,0.4,0.2,0.4,0.4l0,0c0,0.2-0.2,0.4-0.4,0.4h-71.1c-0.2,0-0.4-0.2-0.4-0.4l0,0
	C122.7,151,122.9,150.8,123.2,150.8z"/>
<circle class="st41" cx="127.8" cy="161.6" r="1.4"/>
<text transform="matrix(1 0 0 1 132.6616 163.5591)" class="st3 st13 st27">499 complete</text>
<text transform="matrix(1 0 0 1 132.6616 172.3462)" class="st3 st13 st27">sepsis cases</text>
<circle class="st41" cx="127.8" cy="181.4" r="1.4"/>
<text transform="matrix(1 0 0 1 132.6616 183.4014)" class="st3 st13 st27">Continuous</text>
<text transform="matrix(1 0 0 1 132.6616 192.189)" class="st3 st13 st27">gradient</text>
<circle class="st41" cx="127.8" cy="201.3" r="1.4"/>
<text transform="matrix(1 0 0 1 132.6616 203.2441)" class="st3 st13 st27">k=3 descriptive;</text>
<text transform="matrix(1 0 0 1 132.6616 212.0312)" class="st3 st13 st27">221 cases</text>
<line class="st28" x1="204.9" y1="119.6" x2="206.1" y2="119.6"/>
<circle class="st29" cx="205.5" cy="119.6" r="2"/>
<path class="st14" d="M217.1,68.6h70.3c3.8,0,6.8,3,6.8,6.8v144c0,3.8-3,6.8-6.8,6.8h-70.3c-3.8,0-6.8-3-6.8-6.8v-144
	C210.3,71.6,213.4,68.6,217.1,68.6z"/>
<path class="st15" d="M215.1,65.8h74.3c3.8,0,6.8,3,6.8,6.8v145.1c0,3.8-3,6.8-6.8,6.8h-74.3c-3.8,0-6.8-3-6.8-6.8V72.6
	C208.3,68.8,211.4,65.8,215.1,65.8z"/>
<path class="st42" d="M210.6,65.8H294c1.3,0,2.3,1,2.3,2.3l0,0c0,1.3-1,2.3-2.3,2.3h-83.3c-1.3,0-2.3-1-2.3-2.3l0,0
	C208.3,66.8,209.4,65.8,210.6,65.8z"/>
<circle class="st43" cx="219.1" cy="79.4" r="6.8"/>
<text transform="matrix(1 0 0 1 216.6392 82.2046)" class="st44 st4 st8">3</text>
<text transform="matrix(1 0 0 1 229.8896 86.1733)" class="st10 st4 st8">Residual</text>
<text transform="matrix(1 0 0 1 229.8896 95.811)" class="st2"><tspan x="0" y="0" class="st10 st4 st8">co</tspan><tspan x="8.1" y="0" class="st10 st6 st8">-</tspan><tspan x="10.8" y="0" class="st10 st4 st8">event</tspan></text>
<text transform="matrix(1 0 0 1 229.8896 105.4487)" class="st10 st4 st8">remodeling</text>
<path class="st35" d="M230.7,116.3h22.5c1.8,0,3.3,1.5,3.3,3.3V137c0,1.8-1.5,3.3-3.3,3.3h-22.5c-1.8,0-3.3-1.5-3.3-3.3v-17.4
	C227.5,117.7,228.9,116.3,230.7,116.3z"/>
<line class="st45" x1="232.1" y1="135.3" x2="251.2" y2="135.3"/>
<line class="st45" x1="232.1" y1="135.3" x2="232.1" y2="120.7"/>
<circle class="st46" cx="236.3" cy="131.2" r="1.2"/>
<circle class="st46" cx="240.3" cy="128.1" r="0.9"/>
<circle class="st47" cx="243.7" cy="125.3" r="1.2"/>
<circle class="st47" cx="247.2" cy="122.8" r="0.9"/>
<circle class="st48" cx="248.4" cy="130.7" r="0.9"/>
<circle class="st48" cx="238.9" cy="123" r="0.7"/>
<path class="st49" d="M253.7,128.4l6,2.3v6.5c-2,2.3-4,3.9-6,4.6c-2-0.8-4-2.3-6-4.6v-6.5L253.7,128.4z"/>
<path class="st50" d="M250.5,134.9l2.3,2.6l4.6-4.9"/>
<path class="st51" d="M216.7,150.8h71.1c0.2,0,0.4,0.2,0.4,0.4l0,0c0,0.2-0.2,0.4-0.4,0.4h-71.1c-0.2,0-0.4-0.2-0.4-0.4l0,0
	C216.3,151,216.5,150.8,216.7,150.8z"/>
<circle class="st52" cx="221.4" cy="161.6" r="1.4"/>
<text transform="matrix(1 0 0 1 226.2046 163.5591)" class="st3 st13 st27">CD3/CD14</text>
<text transform="matrix(1 0 0 1 226.2046 172.3462)" class="st3 st13 st27">residual signal</text>
<circle class="st52" cx="221.4" cy="181.4" r="1.4"/>
<text transform="matrix(1 0 0 1 226.2046 183.4014)" class="st3 st13 st27">Frequency vs</text>
<text transform="matrix(1 0 0 1 226.2046 192.189)" class="st3 st13 st27">marker state</text>
<circle class="st52" cx="221.4" cy="201.3" r="1.4"/>
<text transform="matrix(1 0 0 1 226.2046 203.2441)" class="st3 st13 st27">Pair specificity</text>
<text transform="matrix(1 0 0 1 226.2046 212.0312)" class="st3 st13 st27">unresolved</text>
<line class="st28" x1="298.5" y1="119.6" x2="299.6" y2="119.6"/>
<circle class="st29" cx="299.1" cy="119.6" r="2"/>
<path class="st14" d="M310.7,68.6H381c3.8,0,6.8,3,6.8,6.8v144c0,3.8-3,6.8-6.8,6.8h-70.3c-3.8,0-6.8-3-6.8-6.8v-144
	C303.9,71.6,306.9,68.6,310.7,68.6z"/>
<path class="st15" d="M308.7,65.8H383c3.8,0,6.8,3,6.8,6.8v145.1c0,3.8-3,6.8-6.8,6.8h-74.3c-3.8,0-6.8-3-6.8-6.8V72.6
	C301.9,68.8,304.9,65.8,308.7,65.8z"/>
<path class="st53" d="M304.2,65.8h83.3c1.3,0,2.3,1,2.3,2.3l0,0c0,1.3-1,2.3-2.3,2.3h-83.3c-1.3,0-2.3-1-2.3-2.3l0,0
	C301.9,66.8,302.9,65.8,304.2,65.8z"/>
<circle class="st54" cx="312.7" cy="79.4" r="6.8"/>
<text transform="matrix(1 0 0 1 310.1826 82.2046)" class="st55 st4 st8">4</text>
<text transform="matrix(1 0 0 1 323.4331 86.1733)" class="st2"><tspan x="0" y="0" class="st10 st4 st8">Paired</tspan><tspan x="21.1" y="0" class="st10 st6 st8"> </tspan><tspan x="23.3" y="0" class="st10 st4 st8">COMBAT</tspan></text>
<text transform="matrix(1 0 0 1 323.4331 95.811)" class="st2"><tspan x="0" y="0" class="st10 st4 st8">RNA</tspan><tspan x="17.6" y="0" class="st10 st6 st8">-</tspan><tspan x="20.3" y="0" class="st10 st4 st8">CyTOF</tspan></text>
<text transform="matrix(1 0 0 1 323.4331 105.4487)" class="st10 st4 st8">bridge</text>
<circle class="st56" cx="327.8" cy="127.4" r="7.9"/>
<circle class="st57" cx="354.3" cy="127.4" r="7.9"/>
<path class="st58" d="M338.9,124.4h2.8c0.9,0,1.6,0.7,1.6,1.6v0c0,0.9-0.7,1.6-1.6,1.6h-2.8c-0.9,0-1.6-0.7-1.6-1.6v0
	C337.3,125.1,338,124.4,338.9,124.4z"/>
<path class="st58" d="M342.9,127.2h2.8c0.9,0,1.6,0.7,1.6,1.6v0c0,0.9-0.7,1.6-1.6,1.6h-2.8c-0.9,0-1.6-0.7-1.6-1.6v0
	C341.2,127.9,342,127.2,342.9,127.2z"/>
<path class="st58" d="M346.8,124.4h2.8c0.9,0,1.6,0.7,1.6,1.6v0c0,0.9-0.7,1.6-1.6,1.6h-2.8c-0.9,0-1.6-0.7-1.6-1.6v0
	C345.2,125.1,345.9,124.4,346.8,124.4z"/>
<line class="st59" x1="335.4" y1="127.4" x2="346.6" y2="127.4"/>
<path class="st60" d="M310.3,150.8h71.1c0.2,0,0.4,0.2,0.4,0.4l0,0c0,0.2-0.2,0.4-0.4,0.4h-71.1c-0.2,0-0.4-0.2-0.4-0.4l0,0
	C309.8,151,310,150.8,310.3,150.8z"/>
<circle class="st61" cx="314.9" cy="161.6" r="1.4"/>
<text transform="matrix(1 0 0 1 319.748 163.5591)" class="st3 st13 st27">129 matched rows</text>
<circle class="st61" cx="314.9" cy="172.6" r="1.4"/>
<text transform="matrix(1 0 0 1 319.748 174.6143)" class="st3 st13 st27">40 sepsis-only</text>
<text transform="matrix(1 0 0 1 319.748 183.4014)" class="st3 st13 st27">rows</text>
<circle class="st61" cx="314.9" cy="192.5" r="1.4"/>
<text transform="matrix(1 0 0 1 319.748 194.4565)" class="st3 st13 st27">34 participants</text>
<line class="st28" x1="392" y1="119.6" x2="393.2" y2="119.6"/>
<circle class="st29" cx="392.6" cy="119.6" r="2"/>
<path class="st14" d="M404.2,68.6h70.3c3.8,0,6.8,3,6.8,6.8v144c0,3.8-3,6.8-6.8,6.8h-70.3c-3.8,0-6.8-3-6.8-6.8v-144
	C397.4,71.6,400.5,68.6,404.2,68.6z"/>
<path class="st15" d="M402.2,65.8h74.3c3.8,0,6.8,3,6.8,6.8v145.1c0,3.8-3,6.8-6.8,6.8h-74.3c-3.8,0-6.8-3-6.8-6.8V72.6
	C395.4,68.8,398.5,65.8,402.2,65.8z"/>
<path class="st30" d="M397.7,65.8H481c1.3,0,2.3,1,2.3,2.3l0,0c0,1.3-1,2.3-2.3,2.3h-83.3c-1.3,0-2.3-1-2.3-2.3l0,0
	C395.4,66.8,396.4,65.8,397.7,65.8z"/>
<circle class="st31" cx="406.2" cy="79.4" r="6.8"/>
<text transform="matrix(1 0 0 1 403.7261 82.2046)" class="st32 st4 st8">5</text>
<text transform="matrix(1 0 0 1 416.9766 86.1733)" class="st2"><tspan x="0" y="0" class="st10 st4 st8">Context</tspan><tspan x="27.1" y="0" class="st10 st6 st8"> </tspan><tspan x="29.3" y="0" class="st10 st4 st8">/</tspan></text>
<text transform="matrix(1 0 0 1 416.9766 95.811)" class="st10 st4 st8">exploratory</text>
<text transform="matrix(1 0 0 1 416.9766 105.4487)" class="st10 st4 st8">anchor</text>
<circle class="st41" cx="418.3" cy="126.5" r="4.4"/>
<circle class="st62" cx="418.3" cy="126.5" r="1.3"/>
<circle class="st52" cx="425.7" cy="122.1" r="3.5"/>
<circle class="st62" cx="425.7" cy="122.1" r="1.3"/>
<circle class="st61" cx="427.6" cy="131.2" r="4.2"/>
<circle class="st62" cx="427.6" cy="131.2" r="1.3"/>
<circle class="st26" cx="434.8" cy="126.3" r="4"/>
<circle class="st62" cx="434.8" cy="126.3" r="1.3"/>
<path class="st36" d="M442,119.1h7.7c0.9,0,1.6,0.7,1.6,1.6v12.1c0,0.9-0.7,1.6-1.6,1.6H442c-0.9,0-1.6-0.7-1.6-1.6v-12.1
	C440.4,119.8,441.1,119.1,442,119.1z"/>
<path class="st63" d="M444.3,117.2h3c0.6,0,1.2,0.5,1.2,1.2v1.2c0,0.6-0.5,1.2-1.2,1.2h-3c-0.6,0-1.2-0.5-1.2-1.2v-1.2
	C443.2,117.7,443.7,117.2,444.3,117.2z"/>
<line class="st64" x1="443.2" y1="124.2" x2="448.5" y2="124.2"/>
<line class="st64" x1="443.2" y1="127.7" x2="448.5" y2="127.7"/>
<circle class="st39" cx="445.9" cy="137.7" r="3.7"/>
<line class="st65" x1="445.9" y1="137.7" x2="447.8" y2="135.3"/>
<line class="st66" x1="445.9" y1="137.7" x2="444.1" y2="139.1"/>
<path class="st40" d="M403.8,150.8h71.1c0.2,0,0.4,0.2,0.4,0.4l0,0c0,0.2-0.2,0.4-0.4,0.4h-71.1c-0.2,0-0.4-0.2-0.4-0.4l0,0
	C403.4,151,403.6,150.8,403.8,150.8z"/>
<circle class="st41" cx="408.5" cy="161.6" r="1.4"/>
<text transform="matrix(1 0 0 1 413.2915 163.5591)" class="st3 st13 st27">Donor-level</text>
<text transform="matrix(1 0 0 1 413.2915 172.3462)" class="st3 st13 st27">single-cell</text>
<text transform="matrix(1 0 0 1 413.2915 181.1338)" class="st3 st13 st27">context</text>
<circle class="st41" cx="408.5" cy="190.2" r="1.4"/>
<text transform="matrix(1 0 0 1 413.2915 192.189)" class="st3 st13 st27">Death28</text>
<text transform="matrix(1 0 0 1 413.2915 200.9766)" class="st3 st13 st27">exploratory anchor</text>
<circle class="st41" cx="408.5" cy="210" r="1.4"/>
<text transform="matrix(1 0 0 1 413.2915 212.0312)" class="st3 st13 st27">40 rows; 11 events;</text>
<text transform="matrix(1 0 0 1 413.2915 220.8188)" class="st3 st13 st27">exploratory only</text>
<text transform="matrix(1 0 0 1 19.2754 242.3623)" class="st55 st11 st12">B</text>
<text transform="matrix(1 0 0 1 30.6143 242.3623)" class="st10 st13 st8">Locked interpretation</text>
<path class="st67" d="M73.1,252.3h364c4.7,0,8.5,3.8,8.5,8.5V305c0,4.7-3.8,8.5-8.5,8.5h-364c-4.7,0-8.5-3.8-8.5-8.5v-44.2
	C64.6,256.1,68.4,252.3,73.1,252.3z"/>
<linearGradient id="SVGID_00000075149537906754788440000009408066614936065710_" gradientUnits="userSpaceOnUse" x1="-702.1738" y1="755.8847" x2="-701.1738" y2="754.8847" gradientTransform="matrix(385.5118 0 0 -62.3622 270758.6562 47388.082)">
	<stop  offset="0" style="stop-color:#E8FAF7"/>
	<stop  offset="1" style="stop-color:#DFF2FF"/>
</linearGradient>
<path style="fill:url(#SVGID_00000075149537906754788440000009408066614936065710_);stroke:#00A99D;stroke-width:0.9921;stroke-miterlimit:1.1339;" d="
	M70.9,249.4h368.5c4.7,0,8.5,3.8,8.5,8.5v45.4c0,4.7-3.8,8.5-8.5,8.5H70.9c-4.7,0-8.5-3.8-8.5-8.5V258
	C62.4,253.3,66.2,249.4,70.9,249.4z"/>
<path class="st69" d="M80.6,269.3v-3.1c0-3.2,1.7-4.8,5.1-4.8c3.4,0,5.1,1.6,5.1,4.8v3.1"/>
<path class="st70" d="M81.3,268.8H90c1.7,0,3.1,1.4,3.1,3.1v6.1c0,1.7-1.4,3.1-3.1,3.1h-8.7c-1.7,0-3.1-1.4-3.1-3.1v-6.1
	C78.3,270.2,79.6,268.8,81.3,268.8z"/>
<circle class="st55" cx="85.7" cy="274.7" r="1.3"/>
<line class="st71" x1="85.7" y1="275.7" x2="85.7" y2="278.2"/>
<text transform="matrix(1 0 0 1 159.6479 264.189)" class="st10 st13 st8">Inflammatory/MHC-II decoupling is associated with</text>
<text transform="matrix(1 0 0 1 161.0537 274.3936)" class="st10 st13 st8">a prespecified residual CD3/CD14 co-event signal</text>
<text transform="matrix(1 0 0 1 208.5601 284.5981)" class="st10 st13 st8">in paired sepsis samples</text>
<text transform="matrix(1 0 0 1 145.0791 302.7402)" class="st55 st13 st72">Association-only, artifact-aware, non-predictive interpretation</text>
<text transform="matrix(1 0 0 1 19.2754 333.0708)" class="st73 st11 st12">C</text>
<text transform="matrix(1 0 0 1 30.6143 333.0708)" class="st10 st13 st8">Claim boundaries</text>
<path class="st74" d="M43.7,341.6h422.9c4.1,0,7.4,3.3,7.4,7.4v72c0,4.1-3.3,7.4-7.4,7.4H43.7c-4.1,0-7.4-3.3-7.4-7.4v-72
	C36.3,344.9,39.6,341.6,43.7,341.6z"/>
<path class="st75" d="M41.4,338.7h427.5c4.1,0,7.4,3.3,7.4,7.4v73.1c0,4.1-3.3,7.4-7.4,7.4H41.4c-4.1,0-7.4-3.3-7.4-7.4v-73.1
	C34,342,37.3,338.7,41.4,338.7z"/>
<path class="st76" d="M36.6,338.7h437.1c1.4,0,2.6,1.1,2.6,2.6l0,0c0,1.4-1.1,2.6-2.6,2.6H36.6c-1.4,0-2.6-1.1-2.6-2.6l0,0
	C34,339.9,35.2,338.7,36.6,338.7z"/>
<line class="st77" x1="255.1" y1="348.4" x2="255.1" y2="419.2"/>
<path class="st78" d="M51.3,351.8H112c3,0,5.4,2.4,5.4,5.4l0,0c0,3-2.4,5.4-5.4,5.4H51.3c-3,0-5.4-2.4-5.4-5.4l0,0
	C45.9,354.2,48.3,351.8,51.3,351.8z"/>
<text transform="matrix(1 0 0 1 66.7476 359.1494)" class="st55 st13 st8">Allowed</text>
<path class="st79" d="M272.4,351.8h60.7c3,0,5.4,2.4,5.4,5.4l0,0c0,3-2.4,5.4-5.4,5.4h-60.7c-3,0-5.4-2.4-5.4-5.4l0,0
	C267,354.2,269.4,351.8,272.4,351.8z"/>
<text transform="matrix(1 0 0 1 285.2485 359.1494)" class="st73 st13 st8">Excluded</text>
<circle class="st80" cx="54.4" cy="372.5" r="2.8"/>
<path class="st81" d="M53,372.5l1.1,1.4l2.3-3.1"/>
<text transform="matrix(1 0 0 1 60.6616 374.4565)" class="st3 st13 st27">Cross-cohort</text>
<text transform="matrix(1 0 0 1 60.6616 384.4062)" class="st3 st13 st27">recurrence</text>
<circle class="st80" cx="151.4" cy="372.5" r="2.8"/>
<path class="st81" d="M150,372.5l1.1,1.4l2.3-3.1"/>
<text transform="matrix(1 0 0 1 157.6064 374.4565)" class="st3 st13 st27">Paired RNA-CyTOF</text>
<text transform="matrix(1 0 0 1 157.6064 384.4062)" class="st3 st13 st27">bridge</text>
<circle class="st80" cx="54.4" cy="398" r="2.8"/>
<path class="st81" d="M53,398l1.1,1.4l2.3-3.1"/>
<text transform="matrix(1 0 0 1 60.6616 399.9683)" class="st3 st13 st27">Activation-state</text>
<text transform="matrix(1 0 0 1 60.6616 409.918)" class="st3 st13 st27">remodeling</text>
<circle class="st80" cx="151.4" cy="398" r="2.8"/>
<path class="st81" d="M150,398l1.1,1.4l2.3-3.1"/>
<text transform="matrix(1 0 0 1 157.6064 399.9683)" class="st3 st13 st27">Computational</text>
<text transform="matrix(1 0 0 1 157.6064 409.918)" class="st3 st13 st27">sensitivity</text>
<circle class="st82" cx="275.5" cy="368.5" r="2.8"/>
<line class="st83" x1="274.1" y1="367.1" x2="276.9" y2="369.9"/>
<line class="st83" x1="276.9" y1="367.1" x2="274.1" y2="369.9"/>
<text transform="matrix(1 0 0 1 281.7637 370.4883)" class="st3 st13 st27">Causal</text>
<text transform="matrix(1 0 0 1 281.7637 380.4375)" class="st3 st13 st27">mechanism</text>
<circle class="st82" cx="372.5" cy="368.5" r="2.8"/>
<line class="st83" x1="371.1" y1="367.1" x2="373.9" y2="369.9"/>
<line class="st83" x1="373.9" y1="367.1" x2="371.1" y2="369.9"/>
<text transform="matrix(1 0 0 1 378.7085 370.4883)" class="st3 st13 st27">Physical CD3/CD14</text>
<text transform="matrix(1 0 0 1 378.7085 380.4375)" class="st3 st13 st27">complex</text>
<circle class="st82" cx="275.5" cy="388.9" r="2.8"/>
<line class="st83" x1="274.1" y1="387.5" x2="276.9" y2="390.3"/>
<line class="st83" x1="276.9" y1="387.5" x2="274.1" y2="390.3"/>
<text transform="matrix(1 0 0 1 281.7637 390.8975)" class="st3 st13 st27">Validated</text>
<text transform="matrix(1 0 0 1 281.7637 400.8472)" class="st3 st13 st27">endotype</text>
<circle class="st82" cx="372.5" cy="388.9" r="2.8"/>
<line class="st83" x1="371.1" y1="387.5" x2="373.9" y2="390.3"/>
<line class="st83" x1="373.9" y1="387.5" x2="371.1" y2="390.3"/>
<text transform="matrix(1 0 0 1 378.7085 390.8975)" class="st3 st13 st27">Clinical prediction</text>
<text transform="matrix(1 0 0 1 378.7085 400.8472)" class="st3 st13 st27">model</text>
<circle class="st82" cx="275.5" cy="409.3" r="2.8"/>
<line class="st83" x1="274.1" y1="407.9" x2="276.9" y2="410.7"/>
<line class="st83" x1="276.9" y1="407.9" x2="274.1" y2="410.7"/>
<text transform="matrix(1 0 0 1 281.7637 411.3071)" class="st3 st13 st27">Therapeutic</text>
<text transform="matrix(1 0 0 1 281.7637 421.2568)" class="st3 st13 st27">recommendation</text>
</svg>
